<?xml version="1.0" standalone="no"?>
<!DOCTYPE svg PUBLIC "-//W3C//DTD SVG 1.1//EN" "http://www.w3.org/Graphics/SVG/1.1/DTD/svg11.dtd">
<svg xmlns="http://www.w3.org/2000/svg">
<defs >
<font id="GowunBatang" horiz-adv-x="900" ><font-face
    font-family="Gowun Batang"
    units-per-em="1000"
    panose-1="0 0 0 0 0 0 0 0 0 0"
    ascent="1160"
    descent="-288"
    alphabetic="0" />
<glyph unicode=" " glyph-name="space" horiz-adv-x="310" />
<glyph unicode="!" glyph-name="exclam" horiz-adv-x="310" d="M87 735Q83 767 103 788T155 810Q187 810 206 789T222 735Q219 706 213 656T202 541T192 402T188 253H123Q123 328 119 402T109 540T96 655T87 735ZM156 25Q125 25 105 45T85 96Q85 125 105 145T156
165Q186 165 205 145T225 96Q225 65 206 45T156 25Z" />
<glyph unicode="&quot;" glyph-name="quotedbl" horiz-adv-x="380" d="M92 595Q87 648 78 701T60 808Q59 834 74 849T115 865Q140 865 155 850T170 808Q161 755 152 702T138 595H92ZM242 595Q237 648 228 701T210 808Q209 834 224 849T265 865Q290 865 305 850T320
808Q311 755 302 702T288 595H242Z" />
<glyph unicode="#" glyph-name="numbersign" horiz-adv-x="660" d="M75 485L86 570H193L215 728H276L254 570H454L476 728H537L515 570H620L609 485H503L480 320H585L574 235H468L445 72H384L407 235H207L184 72H123L146 235H40L51 320H158L181 485H75ZM219 320H419L442
485H242L219 320Z" />
<glyph unicode="$" glyph-name="dollar" horiz-adv-x="600" d="M262 -30V68Q220 72 181 84T112 112T68 146L60 306Q68 308 81 309T100 311Q109 311 112 307T117 296L139 198Q163 172 195 154T262 129V419Q206 442 165 465T102 522T80 608Q80 661 105 698T171 756T262
785V875H322V788Q389 784 452 753L481 751Q491 750 493 739L497 596Q489 594 479 593T463 591Q452 591 449 603L428 671Q415 696 388 714T322 737V490Q359 475 395 456T462 412T511 353T530 274Q530 215 503 171T429 101T322 69V-30H262ZM322 126Q375 132 404 165T433
253Q433 309 400 341T322 394V126ZM262 516V734Q224 727 198 704T170 636Q169 588 195 561T262 516Z" />
<glyph unicode="%" glyph-name="percent" horiz-adv-x="870" d="M202 380Q126 380 86 431T45 581Q45 685 89 740T218 795Q295 795 335 745T375 597Q375 491 331 436T202 380ZM652 70Q576 70 536 121T495 271Q495 375 539 430T668 485Q745 485 785 435T825 287Q825
181 781 126T652 70ZM604 795H671L257 70H191L604 795ZM665 118Q747 118 747 274Q747 436 655 436Q616 436 595 398T574 285Q574 203 597 161T665 118ZM215 428Q297 428 297 584Q297 746 205 746Q166 746 145 708T124 595Q124 513 147 471T215 428Z" />
<glyph unicode="&amp;" glyph-name="ampersand" horiz-adv-x="870" d="M716 50Q690 49 651 72T565 137Q518 97 457 76T324 55Q242 55 182 83T88 161T55 280Q55 360 101 424T225 516Q195 556 177 591T159 666Q159 709 183 741T251 791T352 810Q406 810 446 792T510
742T533 669Q533 637 517 608T474 560T417 542Q410 543 401 551T388 569Q408 575 423 594T438 645Q438 694 409 728T330 762Q294 762 272 740T249 683Q249 657 264 618T324 522Q380 450 443 377T571 243Q606 309 606 394Q606 412 604 432Q587 433 573 433Q529 433
497 418L490 449Q489 457 491 463T501 472Q531 484 561 487T619 491Q638 491 655 491T691 490Q725 490 757 495T818 517Q836 491 835 466Q826 439 803 428T747 417Q735 417 723 418T698 420Q694 355 675 299T623 198Q673 159 720 136T809 115Q809 99 808 89T803
68Q795 61 767 56T716 50ZM519 178Q454 241 385 321T256 477Q209 450 182 401T155 291Q155 243 174 204T235 141T346 117Q399 117 443 133T519 178Z" />
<glyph unicode="&apos;" glyph-name="quotesingle" horiz-adv-x="230" d="M92 595Q87 648 78 701T60 808Q59 834 74 849T115 865Q140 865 155 850T170 808Q161 755 152 702T138 595H92Z" />
<glyph unicode="(" glyph-name="parenleft" horiz-adv-x="420" d="M316 -90Q251 -57 203 14T127 182T100 390Q100 501 127 598T202 766T316 870L340 835Q293 802 257 735T202 579T182 390Q182 290 201 201T257 46T340 -55L316 -90Z" />
<glyph unicode=")" glyph-name="parenright" horiz-adv-x="420" d="M104 -90L80 -55Q128 -21 163 45T218 201T238 390Q238 490 219 579T164 735T80 835L104 870Q169 837 217 766T293 598T320 390Q320 279 293 182T218 14T104 -90Z" />
<glyph unicode="*" glyph-name="asterisk" horiz-adv-x="510" d="M67 478Q57 496 63 514T88 545Q98 551 111 555T141 563Q158 567 178 571T218 583V587Q198 595 179 599T142 607Q126 611 113 615T89 625Q69 636 64 655T68 693Q79 711 97 715T137 708Q147 703 157
694T179 671Q190 658 204 644T234 616L237 618Q234 638 228 657T217 693Q213 709 210 723T206 748Q206 771 219 785T254 800Q275 800 288 786T302 748Q302 737 299 723T291 693Q286 677 280 658T270 617L273 615Q290 629 304 643T329 671Q351 695 371 708Q391 720
410 716T440 693Q451 674 445 656T419 625Q409 619 396 615T366 607Q350 603 330 599T290 587V583Q310 575 330 571T368 563Q385 560 398 555T421 545Q441 534 447 515T443 478Q432 459 413 455T373 462Q363 467 353 477T331 499Q320 511 306 526T274 555L270 552Q274
531 280 513T291 477Q302 444 302 422Q302 399 289 385T254 370Q233 370 220 384T206 422Q206 433 209 447T217 477Q222 494 228 512T237 552L234 554Q218 541 204 526T179 499Q156 474 136 462Q116 450 97 454T67 478Z" />
<glyph unicode="+" glyph-name="plus" horiz-adv-x="650" d="M570 435V355H365V150H285V355H80V435H285V640H365V435H570Z" />
<glyph unicode="," glyph-name="comma" horiz-adv-x="300" d="M65 -55Q105 -42 127 -19T155 36Q148 35 142 35Q114 35 96 54T78 104Q78 130 99 148T149 165Q184 164 204 139T225 69Q225 6 192 -39T111 -101Q102 -104 93 -101T79 -86L65 -55Z" />
<glyph unicode="-" glyph-name="hyphen" horiz-adv-x="450" d="M400 395V356Q400 337 389 326T359 315H50V370Q50 381 57 388T75 395H400Z" />
<glyph unicode="." glyph-name="period" horiz-adv-x="300" d="M151 25Q120 25 100 45T80 96Q80 125 100 145T151 165Q181 165 200 145T220 96Q220 65 201 45T151 25Z" />
<glyph unicode="/" glyph-name="slash" horiz-adv-x="500" d="M455 840L115 -30H45L385 840H455Z" />
<glyph unicode="0" glyph-name="zero" horiz-adv-x="600" d="M283 65Q172 65 114 158T55 418Q55 599 120 697T307 795Q418 795 476 704T535 445Q535 265 471 165T283 65ZM303 124Q370 124 403 200T437 424Q437 735 288 735Q153 735 153 442Q153 124 303 124Z" />
<glyph unicode="1" glyph-name="one" horiz-adv-x="500" d="M60 690Q74 693 99 704T152 730T203 760T236 785H322V218Q322 170 330 155T363 137Q377 136 398 135T430 134Q430 104 426 90Q423 80 415 80H108Q98 80 98 90Q98 94 100 107T107 128Q112 128 123 129T153
132Q189 137 207 157T225 218V683Q191 670 156 659T102 645Q86 643 81 648T70 664L60 690Z" />
<glyph unicode="2" glyph-name="two" horiz-adv-x="560" d="M45 80V133Q72 150 107 183T180 257T255 344T324 429Q362 477 378 515T395 603Q395 666 360 704T262 742Q210 742 181 711T151 620Q151 601 154 577Q141 573 124 571T93 569Q67 569 56 579T45 611Q45
638 62 669T111 729T190 776T295 795Q394 795 445 746T497 613Q497 569 483 532T442 460T378 382Q328 325 274 266T178 160L394 165Q451 166 461 208L472 256Q475 267 487 267Q492 267 503 265T520 260L503 104Q500 80 475 80H45Z" />
<glyph unicode="3" glyph-name="three" horiz-adv-x="560" d="M237 65Q189 65 142 79T62 115Q49 124 42 130T35 146Q35 158 44 174T65 205T89 228Q116 178 162 152T254 126Q304 126 337 149T388 210T405 288Q405 341 378 385T296 439Q265 431 231 429L176 426V478L234
481Q296 484 336 523T377 622Q377 678 348 709T257 741Q208 741 184 715T159 647Q159 643 159 638T160 628Q141 624 127 622T100 620Q81 620 72 626T62 651Q62 670 77 694T122 742T191 780T281 795Q340 795 384 775T453 717T477 631Q477 581 449 540T373 470Q433
454 469 408T505 294Q505 229 470 177T374 95T237 65Z" />
<glyph unicode="4" glyph-name="four" horiz-adv-x="560" d="M452 80Q452 70 444 63T424 53Q408 49 389 47T354 45V250L15 249V311L379 795Q416 797 431 790T450 768L451 331Q482 331 504 332T555 340L546 278Q542 250 513 250H452V80ZM354 331V670L102 331H354Z" />
<glyph unicode="5" glyph-name="five" horiz-adv-x="560" d="M67 106Q40 126 40 144Q40 149 48 168T83 219Q120 172 165 149T256 126Q296 126 329 143T383 195T404 280Q404 335 379 371T312 426T221 444Q175 444 128 429L107 449L126 780H359Q391 780 422 781T486
790L480 727Q479 712 468 703T440 694H185L175 523Q209 528 241 528Q316 528 374 502T466 424T500 299Q500 233 466 180T373 96T239 65Q190 65 143 75T67 106Z" />
<glyph unicode="6" glyph-name="six" horiz-adv-x="560" d="M274 65Q162 65 101 145T40 371Q40 461 63 538T129 673T232 763T365 795Q378 795 398 794T438 790T472 782Q487 777 487 764Q487 758 482 739T464 711Q436 725 413 730T369 736Q309 736 263 698T188
595T148 449Q176 491 218 515T316 539Q376 539 422 510T494 430T520 314Q520 243 488 186T401 97T274 65ZM143 346Q146 235 185 178T288 120Q350 120 385 170T421 299Q421 376 387 420T293 465Q247 465 207 436T143 346Z" />
<glyph unicode="7" glyph-name="seven" horiz-adv-x="560" d="M206 50Q190 49 185 54T181 76Q192 163 228 266T315 480T424 695H160Q136 694 130 687T116 656L100 607Q97 596 85 596Q80 596 68 598T50 603L68 760Q70 771 73 775T88 780H495Q520 780 520 755V734Q501
703 473 650T415 527T357 380T313 220T295 59L206 50Z" />
<glyph unicode="8" glyph-name="eight" horiz-adv-x="560" d="M179 457Q133 483 101 522T68 617Q68 672 98 711T179 773T290 795Q352 795 399 773T474 712T502 623Q502 572 470 531T381 464Q419 446 452 421T505 360T525 275Q525 215 492 168T400 93T269 65Q201
65 148 90T65 161T35 268Q35 334 72 380T179 457ZM233 432Q189 411 162 371T135 274Q135 205 173 162T279 118Q344 118 384 156T425 257Q425 306 403 336T341 387T252 425Q242 428 233 432ZM322 488Q360 509 382 542T404 621Q404 677 372 709T284 742Q230 742 198
713T166 633Q166 588 195 555T290 499Q298 496 306 494T322 488Z" />
<glyph unicode="9" glyph-name="nine" horiz-adv-x="560" d="M203 65Q191 65 171 67T130 72T96 81Q81 87 81 99Q81 105 86 125T103 152Q158 124 198 124Q259 124 304 161T377 263T415 410Q388 369 347 346T251 322Q190 322 143 351T68 432T40 550Q40 620 72 675T158
763T282 795Q397 795 458 715T520 491Q520 368 482 272T373 121T203 65ZM421 510Q419 623 379 681T272 740Q211 740 175 690T139 560Q139 484 175 440T270 395Q315 395 356 423T421 510Z" />
<glyph unicode=":" glyph-name="colon" horiz-adv-x="320" d="M161 95Q130 95 110 115T90 166Q90 195 110 215T161 235Q191 235 210 215T230 166Q230 135 211 115T161 95ZM161 475Q130 475 110 495T90 546Q90 575 110 595T161 615Q191 615 210 595T230 546Q230
515 211 495T161 475Z" />
<glyph unicode=";" glyph-name="semicolon" horiz-adv-x="320" d="M80 -5Q120 8 142 31T170 86Q163 85 157 85Q129 85 111 104T93 154Q93 180 114 198T164 215Q199 214 219 189T240 119Q240 56 207 11T126 -51Q117 -54 108 -51T94 -36L80 -5ZM161 475Q130 475
110 495T90 546Q90 575 110 595T161 615Q191 615 210 595T230 546Q230 515 211 495T161 475Z" />
<glyph unicode="&lt;" glyph-name="less" horiz-adv-x="650" d="M95 378V398Q95 420 115 432L535 681V589L188 387L535 181V89L115 344Q95 356 95 378Z" />
<glyph unicode="=" glyph-name="equal" horiz-adv-x="650" d="M563 540V460H88V540H563ZM563 320V240H88V320H563Z" />
<glyph unicode="&gt;" glyph-name="greater" horiz-adv-x="650" d="M555 378Q555 356 535 344L115 89V181L462 387L115 589V681L535 432Q555 420 555 398V378Z" />
<glyph unicode="?" glyph-name="question" horiz-adv-x="540" d="M206 256Q202 279 200 298T197 334Q197 367 213 400T282 478Q307 499 330 519T369 567T385 634Q385 696 351 725T271 755Q240 755 211 741T162 701T137 640Q50 651 50 687Q50 701 65 721T109 762T181
796T280 810Q350 810 396 786T466 718T490 621Q490 581 476 554T436 502T373 445Q331 409 308 383T276 328T269 256H206ZM246 25Q215 25 195 45T175 96Q175 125 195 145T246 165Q276 165 295 145T315 96Q315 65 296 45T246 25Z" />
<glyph unicode="@" glyph-name="at" d="M438 -55Q355 -55 285 -28T164 49T84 165T55 311Q55 400 87 475T178 606T316 694T488 725Q597 725 677 685T801 571T845 397Q845 343 830 295T787 209T725 150T651 128Q611 128 588 144T549 203Q527 167 483 144T394 121Q325
121 288 164T251 283Q251 359 279 420T360 517T489 553Q512 553 539 549T586 537L654 556Q650 543 645 513T634 444T626 362T622 284Q622 232 632 207T658 181Q689 181 712 212T748 294T762 402Q762 533 690 604T485 675Q385 675 308 630T188 504T144 315Q144 247
168 189T237 88T340 21T466 -3Q513 -3 559 4T640 35L649 1Q648 -6 642 -10T625 -19Q606 -29 575 -37T508 -50T438 -55ZM532 300Q535 327 537 362T542 431T548 490Q520 508 481 508Q441 508 411 478T365 399T349 288Q349 236 366 205T412 174Q446 174 481 208T532
300Z" />
<glyph unicode="A" glyph-name="A" horiz-adv-x="710" d="M5 80Q-5 80 -5 90Q-5 94 -3 106T4 125Q35 130 54 145T92 204L330 768Q335 780 342 787T360 795H393L609 228Q625 188 638 165T672 136Q680 134 691 133T715 131Q716 121 714 108T709 90Q706 80 698 80H478Q468
80 468 90Q468 94 470 106T477 125Q503 126 514 131T525 152Q525 162 521 177T508 215L471 317H210L164 203Q157 186 153 174T149 154Q149 138 171 133Q179 132 191 132T215 131Q215 104 211 90Q208 80 200 80H5ZM234 377H449L352 640Q351 645 347 645T341 640L234
377Z" />
<glyph unicode="B" glyph-name="B" horiz-adv-x="600" d="M35 80Q25 80 25 90Q25 94 27 106T34 125Q71 127 85 145T100 205V660Q100 694 96 708T79 725T36 729Q36 742 38 753T41 770Q44 780 52 780H294Q397 779 457 736T517 622Q517 569 479 526T380 465Q426 457
468 434T538 373T565 279Q565 183 489 132T276 80H35ZM220 133Q231 132 242 132T264 131Q353 131 409 166T465 280Q465 357 411 394T235 432Q222 432 213 432T197 431V205Q197 161 201 148T220 133ZM197 484Q204 483 212 483T233 483Q314 483 367 514T420 613Q420
674 381 701T276 729Q263 729 250 728T223 724Q207 720 202 704T197 660V484Z" />
<glyph unicode="C" glyph-name="C" horiz-adv-x="710" d="M392 65Q323 65 260 89T148 160T69 273T40 421Q40 502 67 570T144 689T262 767T411 795Q462 795 505 784T592 751H621Q633 751 634 740L646 575Q638 572 628 571T612 569Q602 569 598 580L581 631Q570
665 540 688T471 724T390 736Q316 736 259 700T171 598T140 440Q141 344 178 276T275 171T408 134Q464 134 524 155T636 224L670 175Q606 116 534 91T392 65Z" />
<glyph unicode="D" glyph-name="D" horiz-adv-x="725" d="M25 89Q25 94 27 106T34 125Q71 127 85 145T100 205V660Q100 693 96 707T79 725T36 729Q36 742 38 753T41 770Q43 778 47 779T52 780H284Q477 780 581 697T685 447Q685 336 633 252T481 123T237 80H35Q25
80 25 89ZM197 205Q197 181 200 166T220 145T275 138Q368 138 438 172T546 275T585 448Q585 550 548 610T446 696T293 722H252Q223 722 210 708T197 660V205Z" />
<glyph unicode="E" glyph-name="E" horiz-adv-x="570" d="M500 79L35 80Q25 80 25 90Q25 94 27 106T34 125Q71 128 85 146T100 205V660Q100 694 96 708T79 725T36 729Q36 742 38 753T41 770Q44 780 52 780H487Q498 780 502 776T507 760L515 636Q509 633 497 631T480
629Q467 629 465 640L457 682Q453 706 445 713T413 720L257 722Q228 723 216 719T200 701T197 659V481H330Q371 481 383 491T397 530Q404 534 415 535T431 537Q441 537 441 527L437 360Q437 352 427 349Q422 348 411 346T389 344Q389 379 386 396T370 418T330 424H197V206Q197
161 209 149T246 137L419 141Q448 142 463 150T486 180L502 226Q507 237 517 237Q522 237 533 234T550 228L528 103Q523 79 500 79Z" />
<glyph unicode="F" glyph-name="F" horiz-adv-x="540" d="M35 80Q25 80 25 90Q25 94 27 106T34 125Q71 127 85 145T100 205V660Q100 694 96 708T79 725T36 729Q36 742 38 753T41 770Q44 780 52 780H492Q503 780 507 776T512 760L520 635Q514 632 502 630T485 628Q472
628 470 639L462 681Q458 705 450 712T418 719L257 721Q228 722 216 718T200 700T197 658V476H330Q371 476 383 486T397 525Q404 529 415 530T431 532Q441 532 441 522L437 355Q437 347 427 344Q422 343 411 341T389 339Q389 373 386 389T370 411T330 416H197V205Q197
161 201 148T220 133Q225 133 238 133T264 132T285 131Q285 104 281 90Q278 80 270 80H35Z" />
<glyph unicode="G" glyph-name="G" horiz-adv-x="760" d="M399 64Q328 64 264 88T149 158T69 271T40 421Q40 502 67 570T144 689T262 767T411 795Q462 795 513 787T607 756H636Q648 756 649 745L661 585Q653 582 643 581T627 579Q617 579 613 590L596 636Q587
661 566 679T516 710Q488 724 455 730T390 736Q316 736 259 700T171 597T140 440Q141 344 178 276T275 171T408 134Q446 134 487 139T565 160V310Q565 345 557 359T529 376T476 379Q476 392 478 403T481 420Q484 430 492 430H720Q730 430 730 420Q730 416 727 404T719
385Q682 384 672 368T662 310V139Q603 96 534 80T399 64Z" />
<glyph unicode="H" glyph-name="H" horiz-adv-x="750" d="M35 80Q25 80 25 90Q25 94 27 106T34 125Q71 127 85 145T100 205V660Q100 692 96 705T79 723T36 729Q36 742 38 753T41 770Q44 780 52 780H260Q270 780 270 770Q270 766 268 754T261 735Q221 734 209 718T197
660V476H553V660Q553 691 549 705T532 723T489 729Q489 742 491 753T494 770Q497 780 505 780H710Q720 780 720 770Q720 766 718 754T711 735Q674 734 662 718T650 660V205Q650 161 654 148T673 133Q679 132 692 132T715 131Q715 104 711 90Q708 80 700 80H486Q476
80 476 90Q476 94 478 106T485 125Q522 127 537 145T553 205V411H197V205Q197 161 201 148T220 133Q228 132 241 132T265 131Q265 104 261 90Q258 80 250 80H35Z" />
<glyph unicode="I" glyph-name="I" horiz-adv-x="325" d="M40 80Q30 80 30 90Q30 94 32 106T39 125Q83 127 99 145T115 205V660Q115 692 111 706T90 724T41 729Q41 742 43 753T46 770Q49 780 57 780H285Q295 780 295 770Q295 766 293 754T286 735Q246 732 229
717T212 660V205Q212 161 216 148T235 133Q245 132 261 132T288 131Q288 104 284 90Q281 80 273 80H40Z" />
<glyph unicode="J" glyph-name="J" horiz-adv-x="335" d="M11 -95Q1 -95 -9 -94T-30 -92Q-45 -90 -45 -74Q-45 -58 -33 -33T-6 3Q18 -8 39 -12T74 -17Q100 -17 112 -1T127 54T130 157V660Q130 692 125 706T104 724T51 729Q51 742 53 753T56 770Q59 780 67 780H300Q310
780 310 770Q310 766 308 754T301 735Q261 732 244 717T227 660V136Q227 65 200 13T125 -67T11 -95Z" />
<glyph unicode="K" glyph-name="K" horiz-adv-x="655" d="M35 80Q25 80 25 90Q25 94 27 106T34 125Q71 127 85 145T100 205V660Q100 694 96 708T79 725T36 729Q36 742 38 753T41 770Q44 780 52 780H260Q270 780 270 770Q270 766 268 754T261 735Q221 734 209 718T197
660V420L407 657Q423 674 432 687T441 710Q441 729 400 729Q400 742 402 753T406 770Q409 780 417 780H620Q630 780 630 770Q630 766 628 754T621 735Q584 731 551 712T485 656L306 457Q372 372 419 314T499 220T558 164T604 137T649 130Q651 118 649 103T641 80Q620
73 603 70T571 66Q538 66 509 83T439 148L246 391L197 337V205Q197 161 201 148T220 133Q228 132 241 132T265 131Q265 104 261 90Q258 80 250 80H35Z" />
<glyph unicode="L" glyph-name="L" horiz-adv-x="570" d="M497 79L35 80Q25 80 25 90Q25 94 27 106T34 125Q71 128 85 146T100 205V660Q100 694 96 708T79 725T36 729Q36 742 38 753T41 770Q44 780 52 780H270Q280 780 280 770Q280 766 278 754T271 735Q227 734
212 718T197 660V205Q197 160 209 149T246 139L415 143Q444 144 458 156T482 190L502 240Q507 251 517 251Q522 251 533 249T550 243L525 103Q520 79 497 79Z" />
<glyph unicode="M" glyph-name="M" horiz-adv-x="865" d="M25 90Q25 94 27 106T34 125Q71 127 85 145T100 205L114 657Q115 689 110 703T89 722T44 729Q44 742 46 753T49 770Q52 780 60 780H163Q196 780 206 757L420 287Q422 285 423 285T426 287L663 751Q678
780 710 780H819Q829 780 829 770Q829 766 827 754T820 735Q783 734 766 725T749 674L767 205Q769 163 773 149T793 133Q803 132 816 132T840 131Q840 104 836 90Q833 80 825 80H618Q608 80 608 90Q608 94 610 106T617 125Q654 127 663 145T672 205L663 602Q663
606 661 606T657 603L441 187Q433 172 418 172H392Q377 172 369 187L181 592Q180 596 176 595T172 589L160 205Q159 160 166 148T188 133Q196 132 214 132T243 131Q243 104 239 90Q236 80 228 80H35Q25 80 25 90Z" />
<glyph unicode="N" glyph-name="N" horiz-adv-x="715" d="M25 90Q25 94 27 106T34 125Q71 127 85 145T100 205V650Q100 682 95 698T74 720T30 729Q30 742 32 753T35 770Q38 780 46 780H150Q177 780 193 757L546 234Q548 230 551 231T555 237L554 660Q554 691 549
705T528 723T484 729Q484 742 486 753T489 770Q492 780 500 780H675Q685 780 685 770Q685 766 683 754T676 735Q639 734 627 718T615 660V80H561Q538 80 525 100L170 617Q168 621 165 620T161 614L160 205Q160 160 167 148T188 133Q196 132 214 132T243 131Q243
104 239 90Q236 80 228 80H35Q25 80 25 90Z" />
<glyph unicode="O" glyph-name="O" horiz-adv-x="810" d="M385 65Q312 65 250 90T140 163T67 274T40 414Q40 497 69 566T151 687T274 767T424 795Q500 795 563 769T673 695T744 585T770 446Q770 364 742 294T662 173T540 94T385 65ZM411 126Q488 126 546 163T636
266T668 418Q668 511 635 582T540 693T397 734Q325 734 268 697T176 593T142 442Q142 348 177 277T274 166T411 126Z" />
<glyph unicode="P" glyph-name="P" horiz-adv-x="590" d="M35 80Q25 80 25 90Q25 94 27 106T34 125Q71 127 85 145T100 205V660Q100 694 96 708T79 725T36 729Q36 742 38 753T41 770Q44 780 52 780H304Q426 780 490 730T555 591Q555 518 514 465T400 383T229 354Q213
354 197 355V205Q197 161 201 148T220 133Q228 132 241 132T265 131Q265 104 261 90Q258 80 250 80H35ZM197 419Q241 410 279 410Q354 410 404 451T455 578Q455 659 411 694T288 729Q271 729 253 728T223 724Q207 720 202 704T197 660V419Z" />
<glyph unicode="Q" glyph-name="Q" horiz-adv-x="810" d="M334 68Q250 80 184 126T79 247T40 414Q40 497 69 566T151 687T274 767T424 795Q500 795 563 769T673 695T744 585T770 446Q770 344 727 263T609 130T434 68Q488 33 552 11T675 -12Q700 -12 721 -7T761
8Q769 1 774 -13T780 -35Q758 -61 725 -78T654 -95Q618 -95 574 -79T472 -27T334 68ZM411 126Q488 126 546 163T636 266T668 418Q668 511 635 582T540 693T397 734Q325 734 268 697T176 593T142 442Q142 348 177 277T274 166T411 126Z" />
<glyph unicode="R" glyph-name="R" horiz-adv-x="640" d="M35 80Q25 80 25 90Q25 94 27 106T34 125Q71 127 85 145T100 205V660Q100 694 96 708T79 725T36 729Q36 742 38 753T41 770Q44 780 52 780H294Q413 780 479 734T545 601Q545 529 502 479T389 402Q446 315
483 261T546 179T593 140T640 130Q642 118 639 103T630 80Q595 66 558 66Q526 66 503 82T447 146L300 380Q264 375 227 375Q212 375 197 376V205Q197 161 201 148T220 133Q228 132 241 132T265 131Q265 104 261 90Q258 80 250 80H35ZM197 439Q234 432 268 432Q360
432 402 472T445 591Q445 658 403 693T283 729Q248 729 223 724Q207 720 202 704T197 660V439Z" />
<glyph unicode="S" glyph-name="S" horiz-adv-x="545" d="M264 65Q218 65 172 77T90 107T38 144L30 304Q38 306 51 307T70 309Q79 309 82 305T87 294L108 198Q139 165 183 144T274 123Q339 123 376 158T413 253Q413 305 386 336T318 388T233 424Q133 461 91 506T50
615Q51 676 84 716T170 775T283 795Q362 795 432 760L461 758Q471 757 473 746L477 603Q469 601 459 600T443 598Q432 598 429 610L408 678Q393 707 360 726T277 745Q243 745 212 735T161 702T140 643Q140 603 160 576T213 531T282 499Q322 484 362 465T435 419T489
358T510 274Q510 210 478 163T389 91T264 65Z" />
<glyph unicode="T" glyph-name="T" horiz-adv-x="640" d="M196 80Q186 80 186 90Q186 94 188 106T195 125Q239 127 255 145T271 205V720H120Q96 719 89 712T76 681L65 632Q62 621 50 621Q45 621 33 623T15 628L25 760Q26 771 30 775T45 780H595Q606 780 610 776T615
760L625 628Q619 625 607 623T590 621Q578 621 575 632L564 681Q559 705 552 712T520 720H368V205Q368 161 372 148T391 133Q401 132 417 132T444 131Q444 104 440 90Q437 80 429 80H196Z" />
<glyph unicode="U" glyph-name="U" horiz-adv-x="725" d="M20 729Q20 742 22 753T25 770Q28 780 36 780H249Q259 780 259 770Q259 766 257 754T250 735Q210 734 196 718T181 660V330Q181 233 229 179T363 125Q461 125 512 179T564 330V660Q564 692 559 706T537
724T487 729Q487 742 489 753T492 770Q495 780 503 780H690Q700 780 700 770Q700 766 698 754T691 735Q654 734 640 718T625 659V330Q625 252 594 192T502 99T352 65Q225 65 155 129T84 330V660Q84 693 80 707T63 724T20 729Z" />
<glyph unicode="V" glyph-name="V" horiz-adv-x="695" d="M695 770Q695 766 693 754T686 735Q655 731 635 717T598 656L393 92Q389 80 382 73T363 65H325L108 632Q92 673 79 695T48 723Q39 726 30 727T5 729Q5 756 9 770Q12 780 20 780H244Q254 780 254 770Q254
766 252 754T245 735Q218 734 207 727T195 702Q195 684 209 645L368 216Q370 212 374 212T379 216L533 657Q545 690 545 705Q545 721 532 724T488 729Q488 742 490 753T494 770Q497 780 505 780H685Q695 780 695 770Z" />
<glyph unicode="W" glyph-name="W" horiz-adv-x="960" d="M631 65L492 496L361 92Q353 65 331 65H295L108 632Q82 713 48 723Q39 726 30 727T5 729Q5 756 9 770Q12 780 20 780H236Q246 780 246 770Q246 766 244 754T237 735Q211 734 201 727T190 703Q190 693 194
679T204 645L338 230Q340 226 344 226T349 230L464 581L448 632Q435 673 420 695T388 723Q379 726 370 727T345 729Q345 756 349 770Q352 780 360 780H576Q582 780 581 774Q581 771 581 770Q581 769 581 768Q581 762 581 752T577 735Q551 734 541 727T531 704Q531
694 534 679T544 645L674 230Q676 226 680 226T685 230L806 653Q811 669 813 680T816 700Q816 717 804 722T763 729Q763 742 765 753T769 770Q772 780 780 780H950Q960 780 960 770Q960 766 958 754T951 735Q919 731 902 717T871 656L697 92Q689 65 667 65H631Z"
/>
<glyph unicode="X" glyph-name="X" horiz-adv-x="660" d="M420 80Q410 80 410 90Q410 94 412 106T419 125Q442 126 453 129T464 141Q464 155 439 189L315 374L190 190Q170 161 170 149Q170 132 217 131Q216 118 214 107T209 90Q206 80 198 80H10Q0 80 0 90Q0 94
2 106T9 125Q45 127 72 142T124 195L281 424L120 664Q101 692 88 705T59 723T15 729Q15 756 19 770Q22 780 30 780H249Q259 780 259 770Q259 766 257 754T250 735Q209 734 209 715Q209 701 229 673L346 499L460 670Q480 699 480 711Q480 728 433 729Q434 742 437
753T441 770Q444 780 452 780H641Q651 780 651 770Q651 766 649 754T642 735Q606 733 580 718T527 665L379 450L549 196Q568 169 582 156T614 138T660 131Q660 104 656 90Q653 80 645 80H420Z" />
<glyph unicode="Y" glyph-name="Y" horiz-adv-x="650" d="M201 80Q191 80 191 90Q191 94 193 106T200 125Q244 127 260 145T276 205V379L98 664Q79 692 68 705T44 723T5 729Q5 756 9 770Q12 780 20 780H228Q238 780 238 770Q238 766 236 754T229 735Q190 733 190
709Q190 695 203 673L341 453Q344 448 347 453L466 670Q474 686 479 696T484 713Q484 722 473 725T438 729Q439 742 442 753T446 770Q449 780 457 780H635Q645 780 645 770Q645 766 643 754T636 735Q606 733 580 719T530 665L373 388V205Q373 161 377 148T396 133Q406
132 422 132T449 131Q449 104 445 90Q442 80 434 80H201Z" />
<glyph unicode="Z" glyph-name="Z" horiz-adv-x="600" d="M64 80Q40 80 40 105V125L415 724L152 720Q128 720 121 713T108 682L100 640Q98 629 85 629Q80 629 68 631T50 636L58 760Q59 771 63 775T78 780H517Q537 780 537 760V743L161 138L440 143Q469 144 483
156T507 190L527 240Q532 251 542 251Q547 251 558 249T575 243L550 104Q545 80 522 80H64Z" />
<glyph unicode="[" glyph-name="bracketleft" horiz-adv-x="420" d="M120 -23V803Q120 838 152 841L347 860L350 832Q352 821 344 815T323 806L236 796Q216 794 208 785T200 756V24Q200 5 208 -4T236 -16L323 -26Q336 -27 344 -34T350 -52L347 -80L152 -61Q120
-58 120 -23Z" />
<glyph unicode="\" glyph-name="backslash" horiz-adv-x="500" d="M45 840H115L455 -30H385L45 840Z" />
<glyph unicode="]" glyph-name="bracketright" horiz-adv-x="420" d="M300 -23Q300 -58 268 -61L73 -80L70 -52Q69 -41 76 -34T97 -26L184 -16Q204 -14 212 -5T220 24V756Q220 776 212 785T184 796L97 806Q84 808 77 814T70 832L73 860L268 841Q300 838 300 803V-23Z" />
<glyph unicode="^" glyph-name="asciicircum" horiz-adv-x="500" d="M30 540L210 835Q219 850 237 850H263Q281 850 290 835L470 540H379L249 756L119 540H30Z" />
<glyph unicode="_" glyph-name="underscore" horiz-adv-x="650" d="M640 25V-35H10V25H640Z" />
<glyph unicode="`" glyph-name="grave" horiz-adv-x="600" d="M366 610L200 709Q172 725 170 750Q167 786 226 820L395 641L366 610Z" />
<glyph unicode="a" glyph-name="a" horiz-adv-x="500" d="M374 70Q362 73 350 84T330 116Q305 94 270 80T184 65Q118 65 77 98T35 188Q35 246 68 280T166 333T323 366V395Q324 460 302 484T231 508Q198 508 181 494T157 458T148 409Q127 409 104 413T66 426T54
446Q62 477 92 503T168 544T269 560Q346 560 385 524T421 412Q420 395 420 356T419 275Q419 241 419 211T421 164Q423 146 430 140T448 135L480 137Q490 137 490 127Q490 121 488 110T482 91Q463 83 430 77T374 70ZM321 183L322 317Q272 310 231 297T165 261T140
199Q140 172 159 151T215 130Q245 130 276 142T321 183Z" />
<glyph unicode="b" glyph-name="b" horiz-adv-x="580" d="M124 73Q117 72 99 79T73 97Q78 108 83 132T89 179Q90 198 91 239T93 334T94 447T95 561Q95 613 95 652T93 710Q92 727 86 737T63 748L30 750Q20 750 20 763Q20 777 30 795Q48 799 75 802T129 807T167
810Q187 810 192 800T195 765Q194 741 193 697T190 598T188 483Q217 516 258 538T344 560Q412 560 456 527T522 440T545 327Q545 279 530 233T483 148T404 88T295 65Q255 65 224 76T169 108Q158 96 146 87T124 73ZM187 407Q187 370 187 337Q187 306 187 278T188
225Q195 182 229 154T309 126Q370 126 407 175T445 307Q445 386 414 437T314 488Q275 488 242 466T187 407Z" />
<glyph unicode="c" glyph-name="c" horiz-adv-x="485" d="M267 65Q204 65 151 90T67 167T35 299Q35 374 65 433T153 526T291 560Q345 560 379 545T430 513T447 487Q447 477 437 465T410 442T377 428Q363 472 332 487T267 502Q224 502 195 477T151 410T136 324Q136
277 152 233T202 161T284 133Q326 133 367 150T433 194Q443 184 451 171T460 148Q460 133 440 119Q400 91 354 78T267 65Z" />
<glyph unicode="d" glyph-name="d" horiz-adv-x="565" d="M313 763Q313 777 323 795Q338 799 364 802T417 807T455 810Q475 810 482 800T488 765Q483 686 482 577T480 340V165Q480 147 486 142T504 136H535Q545 136 545 126Q545 120 543 109T537 90Q515 82 484
76T434 70Q421 73 408 86T388 124Q358 96 320 81T241 65Q177 65 131 98T60 186T35 305Q35 352 50 397T96 479T172 538T276 560Q310 560 337 552T387 530Q387 580 387 626T386 710Q386 747 356 748L323 750Q313 750 313 763ZM383 195Q385 233 386 289T387 409Q376
449 341 475T262 501Q201 501 168 451T135 321Q135 271 151 230T197 164T271 139Q302 139 332 153T383 195Z" />
<glyph unicode="e" glyph-name="e" horiz-adv-x="500" d="M137 305Q141 228 181 182T296 135Q334 135 371 150T433 191Q454 168 454 145Q453 130 433 116Q396 89 350 77T263 65Q202 65 150 91T67 170T35 300Q35 377 63 435T144 527T269 560Q328 560 370 536T436
470T460 373Q460 345 449 332T409 316L137 305ZM261 502Q212 502 180 465T140 362L363 375Q366 436 339 469T261 502Z" />
<glyph unicode="f" glyph-name="f" horiz-adv-x="365" d="M30 80Q20 80 20 90Q20 94 21 106T26 125Q62 127 75 141T90 180Q91 197 92 234T93 318T94 409T94 485H28Q15 485 15 498Q15 509 20 524T29 545H94V581Q94 711 145 765T292 820Q310 820 332 817T371 809Q380
806 380 797Q380 778 370 751T348 715Q291 743 255 743Q203 743 191 692T189 545H258Q281 545 305 546T343 550Q338 517 329 496Q324 485 306 485H190Q189 442 188 398T187 309Q187 274 187 240T189 170Q190 151 195 143T214 133Q225 132 239 132T263 131Q263 104
259 90Q256 80 248 80H30Z" />
<glyph unicode="g" glyph-name="g" horiz-adv-x="510" d="M121 79Q119 67 117 57T115 35Q115 -8 156 -31T256 -55Q324 -55 356 -26T388 36Q388 62 368 82T306 102L207 100Q149 99 108 117T67 173Q68 196 81 218T119 260Q82 282 62 317T41 395Q42 443 68 480T140
538T244 560Q290 560 331 543L385 545Q429 547 452 549T490 555Q489 543 488 530T481 503Q476 487 461 487Q449 487 434 488T400 492Q434 451 434 400Q434 352 408 314T335 254T232 231Q195 231 163 241Q158 232 155 221T151 198Q151 178 162 170T196 163L338 167Q413
169 447 137T481 52Q481 4 448 -34T360 -93T236 -115Q133 -115 79 -80T25 14Q25 35 36 53T64 86Q73 94 86 90L121 79ZM249 288Q287 288 311 314T335 389Q335 441 305 473T228 505Q187 505 164 480T140 404Q140 350 170 319T249 288Z" />
<glyph unicode="h" glyph-name="h" horiz-adv-x="570" d="M30 80Q20 80 20 90Q20 94 21 106T26 125Q58 127 71 141T87 180Q89 199 90 247T92 357T94 485T95 603Q95 641 95 669T93 710Q92 727 86 737T63 748L30 750Q20 750 20 763Q20 777 30 795Q45 799 71 802T123
807T161 810Q181 810 188 800T194 765Q193 745 192 703T190 605T188 487Q221 520 263 540T349 560Q411 560 450 525T490 413V292Q490 244 490 211T493 160Q496 138 511 134Q529 130 560 130Q560 104 556 90Q553 80 545 80H335Q325 80 325 90Q325 94 326 104T331
125Q363 127 376 141T392 180Q397 222 397 292Q397 312 397 331T395 367Q392 426 373 454T307 482Q275 482 243 470T187 432Q187 380 187 332T186 243V170Q186 151 191 143T211 133Q227 131 250 131Q250 104 246 90Q243 80 235 80H30Z" />
<glyph unicode="i" glyph-name="i" horiz-adv-x="285" d="M40 80Q30 80 30 94Q30 111 36 125Q72 127 86 141T103 180Q105 197 105 232T106 306Q106 345 106 382T104 442Q102 478 74 481L40 484Q30 484 30 497Q30 510 40 528Q55 532 82 536T136 543T175 546Q208
546 205 506Q203 477 202 438T201 355T200 270Q200 240 200 212T202 159Q203 146 208 141T219 134Q228 133 242 132T270 131Q270 104 266 90Q263 80 252 80H40ZM146 635Q115 635 95 654T75 702Q75 732 95 751T146 770Q177 770 196 751T215 702Q215 674 196 655T146
635Z" />
<glyph unicode="j" glyph-name="j" horiz-adv-x="280" d="M-50 -52Q0 -49 31 -35T80 10T103 99Q105 119 106 152T107 225Q107 266 106 308T104 386T101 442Q100 460 93 470T70 481L35 484Q25 485 25 497Q25 510 35 528Q50 532 77 536T130 543T169 546Q203 546
199 505Q197 478 197 423T196 304Q196 254 197 202T198 105Q198 2 148 -53T-25 -115Q-39 -115 -43 -103Q-46 -95 -48 -78T-50 -52ZM141 635Q110 635 90 654T70 702Q70 732 90 751T141 770Q172 770 191 751T210 702Q210 674 191 655T141 635Z" />
<glyph unicode="k" glyph-name="k" horiz-adv-x="535" d="M454 65Q427 65 405 78T358 121L224 285L186 249V170Q186 151 191 143T211 133Q227 131 250 131Q250 104 246 90Q243 80 235 80H30Q20 80 20 90Q20 94 21 106T26 125Q58 127 71 141T87 180Q89 199 90 247T92
357T94 485T95 603Q95 641 95 669T93 710Q92 727 86 737T63 748L30 750Q20 750 20 763Q20 777 30 795Q45 799 71 802T123 807T161 810Q181 810 188 800T194 765Q193 743 192 696T189 586T188 457T186 329L324 456Q342 474 342 484Q342 496 310 496Q310 504 311
515T316 534Q321 545 335 545H500Q510 545 510 533Q510 526 508 515T503 496Q480 495 464 490T428 470T374 424L292 348Q347 274 383 231T444 165T488 134T530 124Q531 111 529 101T524 80Q484 65 454 65Z" />
<glyph unicode="l" glyph-name="l" horiz-adv-x="280" d="M25 80Q15 80 15 90Q15 94 16 106T21 125Q61 127 76 143T93 185Q96 253 98 346T100 532Q100 581 100 626T97 710Q96 727 90 737T66 748L34 750Q24 750 24 763Q24 777 34 795Q49 799 75 802T128 807T166
810Q186 810 193 800T199 765Q197 744 196 695T193 579T191 442T190 306Q190 268 190 235T191 175Q192 156 198 146T218 133Q224 132 239 132T265 131Q265 104 261 90Q258 80 250 80H25Z" />
<glyph unicode="m" glyph-name="m" horiz-adv-x="865" d="M40 80Q30 80 30 90Q30 97 31 108T37 125Q69 127 82 141T98 180Q100 197 100 234T101 311Q101 350 101 387T99 446Q97 482 69 485L35 488Q25 488 25 501Q25 515 35 533Q52 537 77 540T126 547T162 550Q182
550 189 540T197 505Q197 498 197 490Q228 523 268 541T353 560Q396 560 429 541T478 483Q510 521 555 540T649 560Q708 560 747 522T785 403Q785 369 785 338T784 281Q784 235 785 204T787 159Q789 146 793 141T804 134Q811 133 826 132T855 130Q855 104 851 90Q848
80 840 80H630Q620 80 620 90Q620 94 621 104T626 125Q656 127 670 141T688 180Q690 192 690 218T691 273Q691 302 691 329T689 367Q685 426 668 454T604 482Q572 482 542 472T488 436Q489 426 489 415Q489 381 489 350T488 289Q488 241 489 207T491 159Q493 146
497 141T508 134Q515 133 528 132T554 130Q554 104 550 90Q547 80 539 80H334Q324 80 324 90Q324 94 325 104T330 125Q360 127 374 141T392 180Q394 192 394 218T395 273Q395 302 395 329T393 367Q389 426 372 454T308 482Q244 482 196 435Q196 398 196 355T195
270Q195 240 195 212T197 159Q198 146 203 141T214 134Q232 131 260 131Q260 121 259 108T256 90Q253 80 242 80H40Z" />
<glyph unicode="n" glyph-name="n" horiz-adv-x="580" d="M40 80Q30 80 30 90Q30 97 31 108T37 125Q69 127 82 141T98 180Q100 197 100 232T101 306Q101 345 101 384T99 446Q97 482 69 485L35 488Q25 488 25 501Q25 515 35 533Q52 537 77 540T126 547T162 550Q182
550 189 540T197 505Q197 496 197 486Q230 520 273 540T359 560Q421 560 460 525T500 413V292Q500 244 500 211T503 160Q506 138 521 134Q539 130 570 130Q570 104 566 90Q563 80 555 80H345Q335 80 335 90Q335 94 336 104T341 125Q373 127 386 141T402 180Q407
222 407 292Q407 312 407 331T405 367Q402 426 383 454T317 482Q285 482 253 469T196 431Q196 393 196 351T195 270Q195 240 195 212T197 159Q198 146 203 141T214 134Q232 131 260 131Q260 121 259 108T256 90Q253 80 242 80H40Z" />
<glyph unicode="o" glyph-name="o" horiz-adv-x="550" d="M263 65Q195 65 144 94T64 176T35 301Q35 378 66 436T155 527T286 560Q355 560 406 531T486 450T515 326Q516 250 484 191T395 99T263 65ZM282 126Q345 126 380 173T416 302Q416 396 374 447T267 499Q206
499 170 452T134 320Q134 229 175 178T282 126Z" />
<glyph unicode="p" glyph-name="p" horiz-adv-x="570" d="M25 -120Q15 -120 15 -110Q15 -106 16 -94T21 -75Q53 -73 66 -59T82 -20Q84 0 85 41T88 136T89 243T90 345Q90 376 90 401T89 441Q87 477 59 480L25 483Q15 483 15 496Q15 510 25 528Q66 537 96 541T154
545Q174 545 181 536T187 505Q187 499 186 492Q215 521 253 540T334 560Q402 560 446 527T512 440T535 327Q535 279 520 233T473 148T394 88T285 65Q254 65 228 72T180 92Q180 59 180 29T181 -30Q181 -49 186 -57T206 -67Q212 -68 231 -68T260 -69Q260 -96 256
-110Q253 -120 245 -120H25ZM180 213Q191 175 223 151T299 126Q360 126 397 175T435 307Q435 386 404 437T304 488Q268 488 237 469T184 418Q183 376 182 324T180 213Z" />
<glyph unicode="q" glyph-name="q" horiz-adv-x="560" d="M298 -110Q298 -106 299 -94T304 -75Q352 -73 366 -59T382 -20Q383 -2 384 36T386 122Q357 95 319 80T241 65Q177 65 131 98T60 186T35 305Q35 352 50 397T96 479T172 538T276 560Q316 560 348 549T404
518Q413 529 423 537T443 550Q451 552 469 544T496 526Q492 519 487 493T480 444Q479 398 478 332T477 194Q477 133 478 74T480 -30Q481 -49 486 -57T506 -67Q522 -69 545 -69Q545 -96 541 -110Q538 -120 530 -120H308Q298 -120 298 -110ZM385 416Q372 454 338
477T262 501Q201 501 168 451T135 321Q135 271 151 230T197 164T271 139Q303 139 334 154T386 198Q386 222 386 247Q386 294 386 338T385 416Z" />
<glyph unicode="r" glyph-name="r" horiz-adv-x="395" d="M40 80Q30 80 30 90Q30 97 31 108T37 125Q69 127 82 141T98 180Q100 197 100 234T101 311Q101 350 101 387T99 446Q97 482 69 485L35 488Q25 489 25 501Q25 515 35 533Q52 537 77 540T126 547T162 550Q182
550 189 540T197 505Q197 492 197 476Q219 515 251 537T322 560Q345 560 359 555T383 544Q390 540 390 532Q390 513 379 487T353 450Q307 476 273 476Q243 476 227 457T203 404T195 328Q195 315 195 302T195 275Q195 245 195 215T197 159Q198 146 203 141T214 134Q230
133 248 132T280 131Q280 121 279 108T276 90Q273 80 262 80H40Z" />
<glyph unicode="s" glyph-name="s" horiz-adv-x="430" d="M201 65Q166 65 131 73T67 101Q49 114 35 131T20 164Q20 174 34 187T68 213T100 229Q107 194 127 172T176 138T232 127Q259 127 276 140T295 181Q296 222 265 243T193 277Q128 297 85 329T41 421Q41 490
94 525T230 560Q286 560 331 539T387 475Q387 462 373 450T339 430T301 423Q299 466 272 485T210 504Q185 504 164 491T142 449Q142 425 157 409T196 381T244 362Q280 351 315 335T373 290T395 211Q395 161 367 129T294 81T201 65Z" />
<glyph unicode="t" glyph-name="t" horiz-adv-x="370" d="M236 65Q169 65 130 98T91 211L93 485H28Q15 485 15 498Q15 509 20 524T29 545H93V625Q93 643 108 650Q124 658 151 664T201 670Q198 654 196 621T192 545H258Q317 545 349 550Q344 517 335 496Q330 485
312 485H190Q188 435 188 385T187 295Q187 274 187 257T188 226Q191 180 212 160T261 140Q282 140 304 146T355 166Q358 157 361 144T365 121Q365 110 355 103Q324 84 296 75T236 65Z" />
<glyph unicode="u" glyph-name="u" horiz-adv-x="565" d="M234 65Q195 65 162 82T108 133T88 216L89 444Q89 464 83 471T61 480L25 483Q15 484 15 496Q15 510 25 528Q41 533 66 537T117 543T154 545Q173 545 182 536T189 504Q187 464 186 418T185 331V241Q185
186 211 165T272 144Q303 144 336 157T393 192Q395 234 396 283T397 379T398 456Q398 470 393 475T374 481L343 483Q333 483 333 496Q333 510 343 528Q360 532 384 536T431 542T467 545Q484 545 491 537T497 504Q496 484 495 443T492 350T491 249T490 165Q490 147
495 142T513 136H545Q555 136 555 123Q555 109 545 91Q523 83 493 77T443 70Q429 73 414 89T393 136Q359 100 317 83T234 65Z" />
<glyph unicode="v" glyph-name="v" horiz-adv-x="545" d="M242 65L101 408Q87 443 75 461T48 487T5 495Q5 506 7 518T10 535Q13 545 22 545H222Q232 545 232 535Q232 531 231 521T226 500Q207 500 197 495T187 472Q187 456 201 419L296 173L384 417Q397 452 397
470Q397 487 386 493T352 500Q354 523 357 535Q360 545 371 545H530Q540 545 540 535Q540 528 539 517T533 500Q509 498 495 492T470 469T447 419L317 80Q310 71 289 68T242 65Z" />
<glyph unicode="w" glyph-name="w" horiz-adv-x="780" d="M498 65L399 344L287 80Q280 71 259 68T217 65L93 408Q80 444 71 462T47 487T5 495Q5 506 7 518T10 535Q13 545 22 545H215Q225 545 225 535Q225 531 224 521T219 500Q201 500 192 495T183 475Q183 466
186 453T196 419L272 185L371 420Q360 451 351 466T329 488T293 495Q293 506 295 518T298 535Q301 545 310 545H493Q503 545 503 535Q503 531 502 521T497 500Q479 500 471 496T463 477Q463 458 476 419L549 195L626 417Q632 435 635 448T639 470Q639 487 628 493T594
500Q596 523 599 535Q602 545 613 545H765Q775 545 775 535Q775 528 774 517T768 500Q746 498 732 492T709 469T687 419L567 80Q560 71 541 68T498 65Z" />
<glyph unicode="x" glyph-name="x" horiz-adv-x="500" d="M278 80Q268 80 268 90Q268 94 269 104T274 125Q310 126 310 142Q310 149 304 160T287 186Q275 204 263 222T238 258L187 183Q165 151 165 139Q165 126 197 124Q197 113 196 104T193 89Q190 79 179 79H15Q5
79 5 89Q5 96 6 107T12 124Q49 126 75 143T129 198L208 302Q184 336 160 370T109 437Q81 473 60 483T10 495Q10 506 12 518T15 535Q18 545 27 545H230Q240 545 240 535Q240 531 239 521T234 500Q197 499 197 484Q197 477 203 466T221 439L267 374L315 441Q337 472
337 484Q337 493 329 496T303 500Q303 511 304 520T307 535Q310 545 321 545H480Q490 545 490 535Q490 528 489 517T483 500Q447 497 424 481T372 426L298 330L398 188Q424 151 445 142T495 130Q495 119 494 107T490 90Q487 80 478 80H278Z" />
<glyph unicode="y" glyph-name="y" horiz-adv-x="540" d="M123 -118Q84 -118 36 -97Q35 -86 39 -69T52 -43Q63 -44 73 -45T93 -47Q139 -47 180 -13T250 80L102 408Q87 443 76 461T49 486T5 495Q5 506 7 518T10 535Q13 545 22 545H230Q240 545 240 535Q240 531
239 521T234 500Q210 499 200 493T190 473Q190 463 194 450T206 419L297 201L376 417Q382 434 385 447T389 470Q389 487 378 493T344 500Q346 523 349 535Q352 545 363 545H525Q535 545 535 535Q535 528 534 517T528 500Q504 498 490 491T465 468T442 419L308 80Q277
-14 233 -66T123 -118Z" />
<glyph unicode="z" glyph-name="z" horiz-adv-x="420" d="M15 80V125Q79 215 142 306T263 487L127 484Q109 483 100 477T84 454L68 414Q63 402 52 404Q34 406 22 411Q24 440 27 469T37 526Q39 536 46 542T63 548Q86 547 115 546T166 545H394V503L136 137L293 142Q313
143 323 150T339 175L364 243Q368 255 380 253Q389 252 397 250T415 244Q412 208 407 172T396 100Q395 90 388 84T371 78Q334 80 298 80T225 80H15Z" />
<glyph unicode="{" glyph-name="braceleft" horiz-adv-x="420" d="M350 -80Q257 -81 208 -45T161 59L171 270Q173 310 164 329T135 354T79 360H55V420H78Q113 421 134 426T164 451T171 510L161 721Q158 789 207 825T350 860V821Q237 817 241 718L248 541Q250 481
224 439T161 392V388Q186 385 206 365T238 312T248 239L241 62Q237 -37 350 -41V-80Z" />
<glyph unicode="|" glyph-name="bar" horiz-adv-x="400" d="M235 870V-100H165V870H235Z" />
<glyph unicode="}" glyph-name="braceright" horiz-adv-x="420" d="M70 -80V-41Q183 -37 179 62L172 239Q171 279 182 311T214 364T259 388V392Q222 397 196 439T172 541L179 718Q183 817 70 821V860Q163 861 212 825T259 721L249 510Q247 470 256 451T286 427T342
420H365V360H341Q307 360 286 354T256 329T249 270L259 59Q262 -8 213 -44T70 -80Z" />
<glyph unicode="~" glyph-name="asciitilde" horiz-adv-x="650" d="M118 320L78 337Q55 347 62 368Q82 432 123 465T221 498Q260 498 288 484T340 452Q366 435 391 420T450 404Q479 404 497 426T527 497L570 479Q593 469 589 449Q576 390 533 355T429 320Q389
320 361 335T307 369Q283 386 259 401T204 416Q147 416 118 320Z" />
<glyph unicode="&#xa0;" glyph-name="uni00A0" horiz-adv-x="310" />
<glyph unicode="&#xa1;" glyph-name="exclamdown" horiz-adv-x="310" d="M223 -35Q227 -66 207 -88T155 -110Q123 -110 104 -88T88 -35Q91 -6 97 44T108 159T118 298T122 447H187Q187 372 191 298T201 160T214 45T223 -35ZM154 675Q185 675 205 655T225 604Q225
575 205 555T154 535Q124 535 105 555T85 604Q85 635 104 655T154 675Z" />
<glyph unicode="&#xa2;" glyph-name="cent" horiz-adv-x="570" d="M333 790V657Q386 657 420 642T470 610T487 584Q487 574 477 562T450 539T417 525Q406 560 383 576T333 597V230Q373 232 411 249T473 291Q483 281 491 268T500 245Q500 230 480 216Q446 192 408
179T333 163V30H273V164Q217 170 173 197T102 273T75 396Q75 494 127 564T273 652V790H333ZM273 594Q241 584 220 558T187 496T176 421Q176 364 200 312T273 240V594Z" />
<glyph unicode="&#xa3;" glyph-name="sterling" horiz-adv-x="600" d="M427 60Q390 60 347 67T259 85Q222 93 189 103T127 114Q99 114 83 103T55 77L20 108Q37 130 63 146T118 170Q148 194 158 226T165 308L160 393H50V453H157L150 576Q147 634 175 681T253 757T363
785Q398 785 433 775T492 744Q506 732 506 714Q506 696 490 681T456 657Q425 692 389 709T324 726Q283 726 256 693T233 595L242 453H474L467 418Q462 393 438 393H246L252 294Q252 217 192 172Q209 170 228 167T267 159Q306 152 347 147T425 142Q472 142 498 166T526
214L561 196Q576 189 574 172Q570 110 530 85T427 60Z" />
<glyph unicode="&#xa4;" glyph-name="currency" horiz-adv-x="600" d="M300 193Q266 193 236 202T180 228L107 155L55 207L127 279Q109 306 99 337T88 405Q88 439 97 469T123 525L55 593L107 645L174 578Q201 596 232 606T300 617Q336 617 367 607T426 578L493
645L545 593L477 525Q493 499 502 469T512 405Q512 369 502 338T473 279L545 207L493 155L420 228Q394 212 364 203T300 193ZM300 267Q360 267 399 306T438 405Q438 465 399 504T300 543Q240 543 201 504T162 405Q162 345 201 306T300 267Z" />
<glyph unicode="&#xa5;" glyph-name="yen" horiz-adv-x="620" d="M192 80Q182 80 182 90Q182 94 184 105T191 124Q233 126 248 144T263 202V238H137V303H263V348H137V413H235L109 656Q91 683 81 696T58 714T20 720Q20 733 21 744T24 760Q27 770 35 770H233Q242
770 242 760Q242 756 240 745T234 726Q196 724 196 701Q196 687 209 665L321 429Q324 424 327 429L439 662Q447 678 451 688T456 704Q456 713 444 716T408 720Q409 733 411 744T415 760Q418 770 426 770H590Q600 770 600 760Q600 756 598 745T591 726Q563 724 542
710T500 657L379 413H501L494 373Q489 348 465 348H356V303H496L489 263Q484 238 460 238H356V202Q356 159 360 147T378 132Q387 131 402 131T428 130Q428 117 427 106T424 90Q421 80 414 80H192Z" />
<glyph unicode="&#xa6;" glyph-name="brokenbar" horiz-adv-x="400" d="M165 -90V280H235V-90H165ZM165 490V860H235V490H165Z" />
<glyph unicode="&#xa7;" glyph-name="section" horiz-adv-x="490" d="M230 20Q175 20 135 41T84 87Q86 107 103 123T148 141Q161 110 187 91T243 71Q277 71 296 90T315 142Q315 176 300 197T258 233T200 262Q166 278 131 297T73 347T50 422Q50 475 74 514T140
574Q123 591 113 614T102 669Q103 733 149 771T270 810Q326 810 366 789T416 743Q412 724 392 709T349 694Q336 725 312 742T257 759Q223 759 204 740T185 688Q185 654 200 633T242 597T300 568Q335 552 369 533T427 484T450 408Q450 355 426 316T360 256Q377 239
387 216T398 161Q397 97 351 59T230 20ZM316 289Q337 300 350 325T363 384Q363 421 348 443T306 480T248 509L246 510Q230 517 215 524T184 541Q163 530 150 505T137 446Q137 410 152 388T194 350T252 321Q253 321 254 320Q270 313 285 306T316 289Z" />
<glyph unicode="&#xa8;" glyph-name="dieresis" horiz-adv-x="600" d="M207 640Q178 640 159 657T140 700Q140 726 159 745T207 765Q234 765 252 746T270 700Q270 675 252 658T207 640ZM397 640Q368 640 349 657T330 700Q330 726 349 745T397 765Q424 765 442
746T460 700Q460 675 442 658T397 640Z" />
<glyph unicode="&#xa9;" glyph-name="copyright" d="M450 50Q372 50 303 79T182 160T100 280T70 425Q70 504 99 573T181 694T302 775T450 805Q529 805 598 776T719 696T800 576T830 430Q830 351 801 282T720 161T599 79T450 50ZM450 97Q519 97 579 122T686 193T757
297T783 426Q783 496 758 556T687 661T581 731T450 757Q380 757 319 732T213 661T142 556T116 426Q116 358 142 298T213 193T320 123T450 97ZM458 201Q395 201 345 230T265 310T235 424Q235 493 265 546T348 629T468 659Q499 659 526 653T580 633H596Q611 633 613
618L622 511Q616 508 607 507T590 505Q575 505 573 519L563 548Q555 573 525 589T456 605Q392 605 353 559T315 437Q316 386 335 346T388 284T466 261Q504 261 540 276T605 321L638 275Q601 238 555 220T458 201Z" />
<glyph unicode="&#xaa;" glyph-name="ordfeminine" horiz-adv-x="440" d="M315 454Q306 456 296 464T279 488Q260 471 234 461T169 450Q118 450 87 475T55 541Q55 583 81 608T156 647T273 670V693Q273 741 257 758T205 776Q171 776 160 754T146 703Q137 699 126
699Q106 699 89 710T69 731Q79 767 125 791T235 815Q353 815 353 705V524Q355 511 360 506T374 502L397 504Q405 504 405 496Q405 492 403 484T398 470Q383 463 358 459T315 454ZM50 335V390H390V335H50ZM272 535L273 634Q237 629 207 620T158 594T140 550Q140
530 155 514T198 498Q221 498 241 507T272 535Z" />
<glyph unicode="&#xab;" glyph-name="guillemotleft" horiz-adv-x="480" d="M226 105Q209 129 178 163T111 229T40 279V326Q74 345 110 377T178 442T226 500L247 485Q260 475 260 461Q260 449 244 423T201 364T147 303Q176 275 201 243T243 183T260 144Q260 130
247 120L226 105ZM396 105Q379 129 348 163T281 229T210 279V326Q244 345 280 377T348 442T396 500L417 485Q430 475 430 461Q430 449 414 423T371 364T317 303Q346 275 371 243T413 183T430 144Q430 130 417 120L396 105Z" />
<glyph unicode="&#xac;" glyph-name="logicalnot" horiz-adv-x="650" d="M65 475V555H585V230H500V475H65Z" />
<glyph unicode="&#xad;" glyph-name="uni00AD" horiz-adv-x="450" d="M400 395V356Q400 337 389 326T359 315H50V370Q50 381 57 388T75 395H400Z" />
<glyph unicode="&#xae;" glyph-name="registered" horiz-adv-x="600" d="M300 270Q223 270 163 303T69 396T35 533Q35 611 69 671T163 766T300 800Q378 800 437 766T531 673T565 536Q565 458 531 398T438 304T300 270ZM300 309Q368 309 418 337T497 415T525 533Q525
601 497 652T419 731T300 760Q232 760 181 732T102 652T74 533Q74 466 102 416T181 337T300 309ZM411 362Q392 362 377 372T342 413T287 509Q275 508 263 508Q261 508 258 508L259 412Q259 402 261 400T271 397H293L291 377Q289 364 264 364H182Q172 364 166 366T159
374Q159 378 160 384T162 395H167Q181 395 185 400T190 419V658Q190 670 184 672T159 675L162 699Q163 708 177 708H296Q359 708 396 684T433 618Q433 583 410 558T347 520Q378 465 404 431T462 401L459 376Q458 371 444 367T411 362ZM258 542Q266 541 275 541Q316
541 338 559T361 612Q361 644 342 659T279 675Q272 675 267 675T257 673L258 542Z" />
<glyph unicode="&#xaf;" glyph-name="overscore" horiz-adv-x="600" d="M178 714Q180 735 199 735H427L420 691Q415 660 389 660H172L178 714Z" />
<glyph unicode="&#xb0;" glyph-name="degree" horiz-adv-x="310" d="M156 575Q101 575 66 609T30 697Q30 751 65 785T156 820Q210 820 245 786T280 697Q280 644 246 610T156 575ZM156 633Q184 633 201 650T218 697Q218 726 202 744T156 762Q127 762 110 744T92
697Q92 668 109 651T156 633Z" />
<glyph unicode="&#xb1;" glyph-name="plusminus" horiz-adv-x="640" d="M570 485V405H365V220H285V405H80V485H285V670H365V485H570ZM80 165H570V85H80V165Z" />
<glyph unicode="&#xb2;" glyph-name="uni00B2" horiz-adv-x="400" d="M40 420V461Q64 476 95 506T161 574T225 644Q253 675 262 699T272 751Q272 789 249 810T188 832Q157 832 139 814T121 762Q121 749 124 732Q116 729 102 727T77 725Q40 725 40 756Q40 779 60
807T119 855T210 875Q276 875 313 844T350 757Q350 714 329 682T269 610Q238 577 206 543T146 480L276 483Q310 484 316 506L323 535Q327 546 338 546Q343 546 350 545T362 541L365 536L354 439Q352 420 330 420H40Z" />
<glyph unicode="&#xb3;" glyph-name="uni00B3" horiz-adv-x="400" d="M176 415Q144 415 112 423T56 447Q47 452 41 457T35 470Q35 481 48 498T74 525L81 523Q98 495 126 479T187 463Q230 463 256 489T283 558Q283 591 265 615T217 645Q195 640 172 639L130 637V680L174
682Q214 684 239 706T265 763Q265 832 189 832Q161 832 145 818T129 779V768L125 762Q112 760 102 759T84 757Q54 757 54 781Q54 798 73 820T126 858T205 875Q267 875 304 846T342 769Q342 739 326 714T281 671Q317 659 338 630T360 562Q360 520 336 487T270 435T176
415Z" />
<glyph unicode="&#xb4;" glyph-name="acute" horiz-adv-x="600" d="M390 709L219 605L190 633L364 820Q423 786 420 750Q418 725 390 709Z" />
<glyph unicode="&#xb5;" glyph-name="uni00B5" horiz-adv-x="600" d="M119 -105Q91 -105 76 -94T60 -61Q60 -22 63 33T71 151T83 278Q82 340 81 397T80 516Q80 536 100 543T148 551Q177 551 201 545Q190 495 182 439T169 328T166 228Q169 182 194 152T251 121Q279
121 305 144T350 204T373 286Q375 335 378 391T385 514Q386 525 395 532T421 544Q432 548 454 549T501 550Q496 526 489 484T476 391T466 288T462 196Q462 164 475 148T506 131Q529 131 550 152L560 118Q554 98 523 82T460 66Q406 66 384 112Q359 88 328 74T265
60Q201 60 157 101Q165 28 175 -24T192 -91Q171 -105 119 -105Z" />
<glyph unicode="&#xb6;" glyph-name="paragraph" horiz-adv-x="650" d="M339 50V359Q294 365 247 380T158 424T91 495T65 597Q65 684 124 732T289 780L585 779V751Q585 736 574 726T544 716H525V75Q525 65 516 58T495 50H455V725H420Q410 725 410 710V75Q410 65
401 58T380 50H339ZM339 408V726H320Q279 726 240 718T175 681T150 593Q150 520 202 470T339 408Z" />
<glyph unicode="&#xb7;" glyph-name="middot" horiz-adv-x="460" d="M231 365Q200 365 180 385T160 436Q160 465 180 485T231 505Q261 505 280 485T300 436Q300 405 281 385T231 365Z" />
<glyph unicode="&#xb8;" glyph-name="cedilla" horiz-adv-x="600" d="M255 -170Q240 -170 232 -163T225 -144L232 -104Q246 -108 259 -110T284 -112Q310 -112 325 -103T341 -76Q341 -42 289 -42Q281 -42 271 -43T250 -46L244 -38L269 90H333L319 19Q365 16 390
-3T415 -56Q415 -80 396 -106T341 -151T255 -170Z" />
<glyph unicode="&#xb9;" glyph-name="uni00B9" horiz-adv-x="400" d="M99 420Q88 420 88 431Q88 434 90 446T97 460Q99 460 106 460T129 462Q173 468 173 511V795Q151 788 129 782T96 773Q76 770 69 788L60 811Q76 814 102 825T152 849T183 870H248V511Q248 483
252 475T271 465Q280 464 294 464T315 463L320 458Q320 450 320 442T317 430Q314 420 305 420H99Z" />
<glyph unicode="&#xba;" glyph-name="ordmasculine" horiz-adv-x="440" d="M211 448Q132 448 86 495T40 623Q40 680 63 723T129 790T228 815Q308 815 354 768T400 642Q400 585 377 541T311 473T211 448ZM225 493Q274 493 298 528T323 624Q323 693 293 731T214
770Q167 770 142 735T117 637Q117 570 146 532T225 493ZM50 335V390H390V335H50Z" />
<glyph unicode="&#xbb;" glyph-name="guillemotright" horiz-adv-x="480" d="M84 105L63 120Q50 130 50 144Q50 156 66 183T109 242T163 303Q135 332 109 364T67 422T50 461Q50 475 63 485L84 500Q101 476 132 443T200 377T270 326V279Q237 262 200 230T132 163T84
105ZM254 105L233 120Q220 130 220 144Q220 156 236 183T279 242T333 303Q305 332 279 364T237 422T220 461Q220 475 233 485L254 500Q271 476 302 443T370 377T440 326V279Q407 262 370 230T302 163T254 105Z" />
<glyph unicode="&#xbc;" glyph-name="onequarter" d="M99 350Q88 350 88 361Q88 364 90 376T97 390Q99 390 106 390T129 392Q173 398 173 441V725Q151 718 129 712T96 703Q76 700 69 718L60 741Q76 744 102 755T152 779T183 800H248V441Q248 413 252 405T271 395Q280
394 294 394T315 393L320 388Q320 380 320 372T317 360Q314 350 305 350H99ZM643 795H710L296 70H230L643 795ZM815 77Q815 62 792 55Q770 50 739 50V174H510V219L521 232L520 235H523L758 525Q784 527 796 522T813 504L814 235Q834 235 849 236T885 242L878 196Q875
174 851 174H815V77ZM584 235H739V429L584 235Z" />
<glyph unicode="&#xbd;" glyph-name="onehalf" d="M99 350Q88 350 88 361Q88 364 90 376T97 390Q99 390 106 390T129 392Q173 398 173 441V725Q151 718 129 712T96 703Q76 700 69 718L60 741Q76 744 102 755T152 779T183 800H248V441Q248 413 252 405T271 395Q280
394 294 394T315 393L320 388Q320 380 320 372T317 360Q314 350 305 350H99ZM623 795H690L276 70H210L623 795ZM540 70V111Q564 126 595 156T661 224T725 294Q753 325 762 349T772 401Q772 439 749 460T688 482Q657 482 639 464T621 412Q621 399 624 382Q616 379
602 377T577 375Q540 375 540 406Q540 429 560 457T619 505T710 525Q776 525 813 494T850 407Q850 364 829 332T769 260Q738 227 706 193T646 130L776 133Q810 134 816 156L823 185Q827 196 838 196Q843 196 850 195T862 191L865 186L854 89Q852 70 830 70H540Z"
/>
<glyph unicode="&#xbe;" glyph-name="threequarters" d="M176 345Q144 345 112 353T56 377Q47 382 41 387T35 400Q35 411 48 428T74 455L81 453Q98 425 126 409T187 393Q230 393 256 419T283 488Q283 521 265 545T217 575Q195 570 172 569L130 567V610L174 612Q214
614 239 636T265 693Q265 762 189 762Q161 762 145 748T129 709V698L125 692Q112 690 102 689T84 687Q54 687 54 711Q54 728 73 750T126 788T205 805Q267 805 304 776T342 699Q342 669 326 644T281 601Q317 589 338 560T360 492Q360 450 336 417T270 365T176 345ZM643
795H710L296 70H230L643 795ZM815 77Q815 62 792 55Q770 50 739 50V174H510V219L521 232L520 235H523L758 525Q784 527 796 522T813 504L814 235Q834 235 849 236T885 242L878 196Q875 174 851 174H815V77ZM584 235H739V429L584 235Z" />
<glyph unicode="&#xbf;" glyph-name="questiondown" horiz-adv-x="540" d="M334 444Q338 421 340 402T343 366Q343 333 327 300T258 222Q234 201 210 181T171 133T155 66Q155 4 189 -25T269 -55Q301 -55 330 -41T379 -1T403 60Q490 49 490 13Q490 -1 475 -21T431
-62T359 -96T260 -110Q191 -110 144 -85T74 -18T50 79Q50 119 64 146T104 199T167 255Q210 292 233 318T265 372T271 444H334ZM294 675Q325 675 345 655T365 604Q365 575 345 555T294 535Q264 535 245 555T225 604Q225 635 244 655T294 675Z" />
<glyph unicode="&#xc0;" glyph-name="Agrave" horiz-adv-x="710" d="M5 80Q-5 80 -5 90Q-5 94 -3 106T4 125Q35 130 54 145T92 204L330 768Q335 780 342 787T360 795H393L609 228Q625 188 638 165T672 136Q680 134 691 133T715 131Q716 121 714 108T709 90Q706
80 698 80H478Q468 80 468 90Q468 94 470 106T477 125Q503 126 514 131T525 152Q525 162 521 177T508 215L471 317H210L164 203Q157 186 153 174T149 154Q149 138 171 133Q179 132 191 132T215 131Q215 104 211 90Q208 80 200 80H5ZM234 377H449L352 640Q351 645
347 645T341 640L234 377ZM285 922Q252 934 247 955Q236 987 285 1040L500 879L478 845L285 922Z" />
<glyph unicode="&#xc1;" glyph-name="Aacute" horiz-adv-x="710" d="M5 80Q-5 80 -5 90Q-5 94 -3 106T4 125Q35 130 54 145T92 204L330 768Q335 780 342 787T360 795H393L609 228Q625 188 638 165T672 136Q680 134 691 133T715 131Q716 121 714 108T709 90Q706
80 698 80H478Q468 80 468 90Q468 94 470 106T477 125Q503 126 514 131T525 152Q525 162 521 177T508 215L471 317H210L164 203Q157 186 153 174T149 154Q149 138 171 133Q179 132 191 132T215 131Q215 104 211 90Q208 80 200 80H5ZM234 377H449L352 640Q351 645
347 645T341 640L234 377ZM455 922L262 845L240 879L455 1040Q504 987 493 955Q488 934 455 922Z" />
<glyph unicode="&#xc2;" glyph-name="Acircumflex" horiz-adv-x="710" d="M5 80Q-5 80 -5 90Q-5 94 -3 106T4 125Q35 130 54 145T92 204L330 768Q335 780 342 787T360 795H393L609 228Q625 188 638 165T672 136Q680 134 691 133T715 131Q716 121 714 108T709 90Q706
80 698 80H478Q468 80 468 90Q468 94 470 106T477 125Q503 126 514 131T525 152Q525 162 521 177T508 215L471 317H210L164 203Q157 186 153 174T149 154Q149 138 171 133Q179 132 191 132T215 131Q215 104 211 90Q208 80 200 80H5ZM234 377H449L352 640Q351 645
347 645T341 640L234 377ZM215 871L326 980Q335 989 342 994T362 1000H377Q389 1000 396 994T413 980L525 872L497 840L371 921L243 840L215 871Z" />
<glyph unicode="&#xc3;" glyph-name="Atilde" horiz-adv-x="710" d="M5 80Q-5 80 -5 90Q-5 94 -3 106T4 125Q35 130 54 145T92 204L330 768Q335 780 342 787T360 795H393L609 228Q625 188 638 165T672 136Q680 134 691 133T715 131Q716 121 714 108T709 90Q706
80 698 80H478Q468 80 468 90Q468 94 470 106T477 125Q503 126 514 131T525 152Q525 162 521 177T508 215L471 317H210L164 203Q157 186 153 174T149 154Q149 138 171 133Q179 132 191 132T215 131Q215 104 211 90Q208 80 200 80H5ZM234 377H449L352 640Q351 645
347 645T341 640L234 377ZM507 984Q532 982 530 951Q530 937 521 914T491 873T438 855Q412 855 391 867T353 893Q335 907 326 911T307 915Q266 915 261 863L232 865Q208 866 210 899Q211 914 221 935T251 973T304 990Q330 990 350 978T386 953Q404 939 414 935T435
930Q458 930 468 946T477 986L507 984Z" />
<glyph unicode="&#xc4;" glyph-name="Adieresis" horiz-adv-x="710" d="M5 80Q-5 80 -5 90Q-5 94 -3 106T4 125Q35 130 54 145T92 204L330 768Q335 780 342 787T360 795H393L609 228Q625 188 638 165T672 136Q680 134 691 133T715 131Q716 121 714 108T709 90Q706
80 698 80H478Q468 80 468 90Q468 94 470 106T477 125Q503 126 514 131T525 152Q525 162 521 177T508 215L471 317H210L164 203Q157 186 153 174T149 154Q149 138 171 133Q179 132 191 132T215 131Q215 104 211 90Q208 80 200 80H5ZM234 377H449L352 640Q351 645
347 645T341 640L234 377ZM267 870Q238 870 219 887T200 930Q200 956 219 975T267 995Q294 995 312 976T330 930Q330 905 312 888T267 870ZM477 870Q448 870 429 887T410 930Q410 956 429 975T477 995Q504 995 522 976T540 930Q540 905 522 888T477 870Z" />
<glyph unicode="&#xc5;" glyph-name="Aring" horiz-adv-x="710" d="M5 80Q-5 80 -5 90Q-5 94 -3 106T4 125Q35 130 54 145T92 204L330 768Q335 780 342 787T360 795H393L609 228Q625 188 638 165T672 136Q680 134 691 133T715 131Q716 121 714 108T709 90Q706
80 698 80H478Q468 80 468 90Q468 94 470 106T477 125Q503 126 514 131T525 152Q525 162 521 177T508 215L471 317H210L164 203Q157 186 153 174T149 154Q149 138 171 133Q179 132 191 132T215 131Q215 104 211 90Q208 80 200 80H5ZM369 825Q323 825 292 855T260
928Q260 972 291 1001T369 1030Q417 1030 448 1001T480 928Q480 885 449 855T369 825ZM234 377H449L352 640Q351 645 347 645T341 640L234 377ZM369 880Q392 880 406 894T421 928Q421 948 407 961T369 975Q347 975 333 962T319 928Q319 908 333 894T369 880Z" />
<glyph unicode="&#xc6;" glyph-name="AE" horiz-adv-x="940" d="M10 80Q0 80 0 90Q0 94 2 106T9 125Q40 130 68 150T121 212L409 686Q415 697 418 704T422 716Q422 727 405 728T367 729Q363 729 359 729T351 729Q351 742 353 753T356 770Q359 780 367 780H857Q868
780 872 776T877 760L885 636Q879 633 867 631T850 629Q837 629 835 640L827 682Q823 706 815 713T783 720L647 722Q618 723 606 719T590 701T587 659V481H700Q741 481 753 491T767 530Q774 534 785 535T801 537Q811 537 811 527Q808 485 807 444T807 360Q807 352
797 349Q792 348 781 346T759 344Q759 379 756 396T740 418T700 424H587V206Q587 161 599 149T636 137L789 141Q818 142 833 150T856 180L872 226Q877 237 887 237Q892 237 903 234T920 228L898 103Q893 79 870 79L425 80Q415 80 415 90Q415 94 417 106T424 125Q461
128 475 146T490 205V330H268L184 188Q176 174 171 164T166 147Q166 136 181 134T228 131Q228 104 224 90Q221 80 213 80H10ZM301 387H490V696Q490 700 488 700T484 698L301 387Z" />
<glyph unicode="&#xc7;" glyph-name="Ccedilla" horiz-adv-x="710" d="M320 -180Q305 -180 296 -173T289 -152L296 -111Q311 -115 325 -117T351 -119Q378 -119 394 -110T410 -82Q410 -46 356 -46Q347 -46 337 -47T315 -50L309 -42L331 70Q252 83 186 129T80 250T40
421Q40 502 67 570T144 689T262 767T411 795Q462 795 505 784T592 751H621Q633 751 634 740L646 575Q638 572 628 571T612 569Q602 569 598 580L581 631Q570 665 540 688T471 724T390 736Q316 736 259 700T171 598T140 440Q141 344 178 276T275 171T408 134Q464
134 524 155T636 224L670 175Q607 117 537 92T397 65L387 17Q435 13 461 -6T487 -61Q487 -86 467 -114T409 -161T320 -180Z" />
<glyph unicode="&#xc8;" glyph-name="Egrave" horiz-adv-x="570" d="M500 79L35 80Q25 80 25 90Q25 94 27 106T34 125Q71 128 85 146T100 205V660Q100 694 96 708T79 725T36 729Q36 742 38 753T41 770Q44 780 52 780H487Q498 780 502 776T507 760L515 636Q509
633 497 631T480 629Q467 629 465 640L457 682Q453 706 445 713T413 720L257 722Q228 723 216 719T200 701T197 659V481H330Q371 481 383 491T397 530Q404 534 415 535T431 537Q441 537 441 527L437 360Q437 352 427 349Q422 348 411 346T389 344Q389 379 386 396T370
418T330 424H197V206Q197 161 209 149T246 137L419 141Q448 142 463 150T486 180L502 226Q507 237 517 237Q522 237 533 234T550 228L528 103Q523 79 500 79ZM205 922Q172 934 167 955Q156 987 205 1040L420 879L398 845L205 922Z" />
<glyph unicode="&#xc9;" glyph-name="Eacute" horiz-adv-x="570" d="M500 79L35 80Q25 80 25 90Q25 94 27 106T34 125Q71 128 85 146T100 205V660Q100 694 96 708T79 725T36 729Q36 742 38 753T41 770Q44 780 52 780H487Q498 780 502 776T507 760L515 636Q509
633 497 631T480 629Q467 629 465 640L457 682Q453 706 445 713T413 720L257 722Q228 723 216 719T200 701T197 659V481H330Q371 481 383 491T397 530Q404 534 415 535T431 537Q441 537 441 527L437 360Q437 352 427 349Q422 348 411 346T389 344Q389 379 386 396T370
418T330 424H197V206Q197 161 209 149T246 137L419 141Q448 142 463 150T486 180L502 226Q507 237 517 237Q522 237 533 234T550 228L528 103Q523 79 500 79ZM375 922L182 845L160 879L375 1040Q424 987 413 955Q408 934 375 922Z" />
<glyph unicode="&#xca;" glyph-name="Ecircumflex" horiz-adv-x="570" d="M500 79L35 80Q25 80 25 90Q25 94 27 106T34 125Q71 128 85 146T100 205V660Q100 694 96 708T79 725T36 729Q36 742 38 753T41 770Q44 780 52 780H487Q498 780 502 776T507 760L515 636Q509
633 497 631T480 629Q467 629 465 640L457 682Q453 706 445 713T413 720L257 722Q228 723 216 719T200 701T197 659V481H330Q371 481 383 491T397 530Q404 534 415 535T431 537Q441 537 441 527L437 360Q437 352 427 349Q422 348 411 346T389 344Q389 379 386 396T370
418T330 424H197V206Q197 161 209 149T246 137L419 141Q448 142 463 150T486 180L502 226Q507 237 517 237Q522 237 533 234T550 228L528 103Q523 79 500 79ZM135 871L246 980Q255 989 262 994T282 1000H297Q309 1000 316 994T333 980L445 872L417 840L291 921L163
840L135 871Z" />
<glyph unicode="&#xcb;" glyph-name="Edieresis" horiz-adv-x="570" d="M500 79L35 80Q25 80 25 90Q25 94 27 106T34 125Q71 128 85 146T100 205V660Q100 694 96 708T79 725T36 729Q36 742 38 753T41 770Q44 780 52 780H487Q498 780 502 776T507 760L515 636Q509
633 497 631T480 629Q467 629 465 640L457 682Q453 706 445 713T413 720L257 722Q228 723 216 719T200 701T197 659V481H330Q371 481 383 491T397 530Q404 534 415 535T431 537Q441 537 441 527L437 360Q437 352 427 349Q422 348 411 346T389 344Q389 379 386 396T370
418T330 424H197V206Q197 161 209 149T246 137L419 141Q448 142 463 150T486 180L502 226Q507 237 517 237Q522 237 533 234T550 228L528 103Q523 79 500 79ZM187 870Q158 870 139 887T120 930Q120 956 139 975T187 995Q214 995 232 976T250 930Q250 905 232 888T187
870ZM397 870Q368 870 349 887T330 930Q330 956 349 975T397 995Q424 995 442 976T460 930Q460 905 442 888T397 870Z" />
<glyph unicode="&#xcc;" glyph-name="Igrave" horiz-adv-x="325" d="M40 80Q30 80 30 90Q30 94 32 106T39 125Q83 127 99 145T115 205V660Q115 692 111 706T90 724T41 729Q41 742 43 753T46 770Q49 780 57 780H285Q295 780 295 770Q295 766 293 754T286 735Q246
732 229 717T212 660V205Q212 161 216 148T235 133Q245 132 261 132T288 131Q288 104 284 90Q281 80 273 80H40ZM80 922Q47 934 42 955Q31 987 80 1040L295 879L273 845L80 922Z" />
<glyph unicode="&#xcd;" glyph-name="Iacute" horiz-adv-x="325" d="M40 80Q30 80 30 90Q30 94 32 106T39 125Q83 127 99 145T115 205V660Q115 692 111 706T90 724T41 729Q41 742 43 753T46 770Q49 780 57 780H285Q295 780 295 770Q295 766 293 754T286 735Q246
732 229 717T212 660V205Q212 161 216 148T235 133Q245 132 261 132T288 131Q288 104 284 90Q281 80 273 80H40ZM250 922L57 845L35 879L250 1040Q299 987 288 955Q283 934 250 922Z" />
<glyph unicode="&#xce;" glyph-name="Icircumflex" horiz-adv-x="325" d="M40 80Q30 80 30 90Q30 94 32 106T39 125Q83 127 99 145T115 205V660Q115 692 111 706T90 724T41 729Q41 742 43 753T46 770Q49 780 57 780H285Q295 780 295 770Q295 766 293 754T286 735Q246
732 229 717T212 660V205Q212 161 216 148T235 133Q245 132 261 132T288 131Q288 104 284 90Q281 80 273 80H40ZM10 871L121 980Q130 989 137 994T157 1000H172Q184 1000 191 994T208 980L320 872L292 840L166 921L38 840L10 871Z" />
<glyph unicode="&#xcf;" glyph-name="Idieresis" horiz-adv-x="325" d="M40 80Q30 80 30 90Q30 94 32 106T39 125Q83 127 99 145T115 205V660Q115 692 111 706T90 724T41 729Q41 742 43 753T46 770Q49 780 57 780H285Q295 780 295 770Q295 766 293 754T286 735Q246
732 229 717T212 660V205Q212 161 216 148T235 133Q245 132 261 132T288 131Q288 104 284 90Q281 80 273 80H40ZM62 870Q33 870 14 887T-5 930Q-5 956 14 975T62 995Q89 995 107 976T125 930Q125 905 107 888T62 870ZM272 870Q243 870 224 887T205 930Q205 956
224 975T272 995Q299 995 317 976T335 930Q335 905 317 888T272 870Z" />
<glyph unicode="&#xd0;" glyph-name="Eth" horiz-adv-x="725" d="M25 89Q25 94 27 106T34 125Q71 127 85 145T100 205V660Q100 693 96 707T79 725T36 729Q36 742 38 753T41 770Q43 778 47 779T52 780H284Q477 780 581 697T685 447Q685 336 633 252T481 123T237
80H35Q25 80 25 89ZM197 205Q197 181 200 166T220 145T275 138Q368 138 438 172T546 275T585 448Q585 550 548 610T446 696T293 722H252Q223 722 210 708T197 660V205ZM271 460H621V403H271V460Z" />
<glyph unicode="&#xd1;" glyph-name="Ntilde" horiz-adv-x="715" d="M25 90Q25 94 27 106T34 125Q71 127 85 145T100 205V650Q100 682 95 698T74 720T30 729Q30 742 32 753T35 770Q38 780 46 780H150Q177 780 193 757L546 234Q548 230 551 231T555 237L554 660Q554
691 549 705T528 723T484 729Q484 742 486 753T489 770Q492 780 500 780H675Q685 780 685 770Q685 766 683 754T676 735Q639 734 627 718T615 660V80H561Q538 80 525 100L170 617Q168 621 165 620T161 614L160 205Q160 160 167 148T188 133Q196 132 214 132T243
131Q243 104 239 90Q236 80 228 80H35Q25 80 25 90ZM495 984Q520 982 518 951Q518 937 509 914T479 873T426 855Q400 855 379 867T341 893Q323 907 314 911T295 915Q254 915 249 863L220 865Q196 866 198 899Q199 914 209 935T239 973T292 990Q318 990 338 978T374
953Q392 939 402 935T423 930Q446 930 456 946T465 986L495 984Z" />
<glyph unicode="&#xd2;" glyph-name="Ograve" horiz-adv-x="810" d="M385 65Q312 65 250 90T140 163T67 274T40 414Q40 497 69 566T151 687T274 767T424 795Q500 795 563 769T673 695T744 585T770 446Q770 364 742 294T662 173T540 94T385 65ZM411 126Q488 126
546 163T636 266T668 418Q668 511 635 582T540 693T397 734Q325 734 268 697T176 593T142 442Q142 348 177 277T274 166T411 126ZM325 922Q292 934 287 955Q276 987 325 1040L540 879L518 845L325 922Z" />
<glyph unicode="&#xd3;" glyph-name="Oacute" horiz-adv-x="810" d="M385 65Q312 65 250 90T140 163T67 274T40 414Q40 497 69 566T151 687T274 767T424 795Q500 795 563 769T673 695T744 585T770 446Q770 364 742 294T662 173T540 94T385 65ZM411 126Q488 126
546 163T636 266T668 418Q668 511 635 582T540 693T397 734Q325 734 268 697T176 593T142 442Q142 348 177 277T274 166T411 126ZM495 922L302 845L280 879L495 1040Q544 987 533 955Q528 934 495 922Z" />
<glyph unicode="&#xd4;" glyph-name="Ocircumflex" horiz-adv-x="810" d="M385 65Q312 65 250 90T140 163T67 274T40 414Q40 497 69 566T151 687T274 767T424 795Q500 795 563 769T673 695T744 585T770 446Q770 364 742 294T662 173T540 94T385 65ZM411 126Q488
126 546 163T636 266T668 418Q668 511 635 582T540 693T397 734Q325 734 268 697T176 593T142 442Q142 348 177 277T274 166T411 126ZM255 871L366 980Q375 989 382 994T402 1000H417Q429 1000 436 994T453 980L565 872L537 840L411 921L283 840L255 871Z" />
<glyph unicode="&#xd5;" glyph-name="Otilde" horiz-adv-x="810" d="M385 65Q312 65 250 90T140 163T67 274T40 414Q40 497 69 566T151 687T274 767T424 795Q500 795 563 769T673 695T744 585T770 446Q770 364 742 294T662 173T540 94T385 65ZM411 126Q488 126
546 163T636 266T668 418Q668 511 635 582T540 693T397 734Q325 734 268 697T176 593T142 442Q142 348 177 277T274 166T411 126ZM547 984Q572 982 570 951Q570 937 561 914T531 873T478 855Q452 855 431 867T393 893Q375 907 366 911T347 915Q306 915 301 863L272
865Q248 866 250 899Q251 914 261 935T291 973T344 990Q370 990 390 978T426 953Q444 939 454 935T475 930Q498 930 508 946T517 986L547 984Z" />
<glyph unicode="&#xd6;" glyph-name="Odieresis" horiz-adv-x="810" d="M385 65Q312 65 250 90T140 163T67 274T40 414Q40 497 69 566T151 687T274 767T424 795Q500 795 563 769T673 695T744 585T770 446Q770 364 742 294T662 173T540 94T385 65ZM411 126Q488
126 546 163T636 266T668 418Q668 511 635 582T540 693T397 734Q325 734 268 697T176 593T142 442Q142 348 177 277T274 166T411 126ZM307 870Q278 870 259 887T240 930Q240 956 259 975T307 995Q334 995 352 976T370 930Q370 905 352 888T307 870ZM517 870Q488
870 469 887T450 930Q450 956 469 975T517 995Q544 995 562 976T580 930Q580 905 562 888T517 870Z" />
<glyph unicode="&#xd7;" glyph-name="multiply" horiz-adv-x="650" d="M489 614L546 558L382 394L543 233L486 177L326 338L165 177L108 233L269 394L105 558L162 614L326 451L489 614Z" />
<glyph unicode="&#xd8;" glyph-name="Oslash" horiz-adv-x="810" d="M160 6L210 110Q133 153 87 232T40 414Q40 497 69 566T151 687T274 767T424 795Q483 795 536 778L588 884L650 849L602 750Q679 706 724 626T770 446Q770 364 742 294T662 173T540 94T385 65Q328
65 276 81L222 -29L160 6ZM247 185L504 712Q455 734 397 734Q325 734 268 697T176 593T142 442Q142 359 170 293T247 185ZM411 126Q488 126 546 163T636 266T668 418Q668 501 641 567T565 675L308 147Q356 126 411 126Z" />
<glyph unicode="&#xd9;" glyph-name="Ugrave" horiz-adv-x="725" d="M20 729Q20 742 22 753T25 770Q28 780 36 780H249Q259 780 259 770Q259 766 257 754T250 735Q210 734 196 718T181 660V330Q181 233 229 179T363 125Q461 125 512 179T564 330V660Q564 692 559
706T537 724T487 729Q487 742 489 753T492 770Q495 780 503 780H690Q700 780 700 770Q700 766 698 754T691 735Q654 734 640 718T625 659V330Q625 252 594 192T502 99T352 65Q225 65 155 129T84 330V660Q84 693 80 707T63 724T20 729ZM285 922Q252 934 247 955Q236
987 285 1040L500 879L478 845L285 922Z" />
<glyph unicode="&#xda;" glyph-name="Uacute" horiz-adv-x="725" d="M20 729Q20 742 22 753T25 770Q28 780 36 780H249Q259 780 259 770Q259 766 257 754T250 735Q210 734 196 718T181 660V330Q181 233 229 179T363 125Q461 125 512 179T564 330V660Q564 692 559
706T537 724T487 729Q487 742 489 753T492 770Q495 780 503 780H690Q700 780 700 770Q700 766 698 754T691 735Q654 734 640 718T625 659V330Q625 252 594 192T502 99T352 65Q225 65 155 129T84 330V660Q84 693 80 707T63 724T20 729ZM455 922L262 845L240 879L455
1040Q504 987 493 955Q488 934 455 922Z" />
<glyph unicode="&#xdb;" glyph-name="Ucircumflex" horiz-adv-x="725" d="M20 729Q20 742 22 753T25 770Q28 780 36 780H249Q259 780 259 770Q259 766 257 754T250 735Q210 734 196 718T181 660V330Q181 233 229 179T363 125Q461 125 512 179T564 330V660Q564
692 559 706T537 724T487 729Q487 742 489 753T492 770Q495 780 503 780H690Q700 780 700 770Q700 766 698 754T691 735Q654 734 640 718T625 659V330Q625 252 594 192T502 99T352 65Q225 65 155 129T84 330V660Q84 693 80 707T63 724T20 729ZM215 871L326 980Q335
989 342 994T362 1000H377Q389 1000 396 994T413 980L525 872L497 840L371 921L243 840L215 871Z" />
<glyph unicode="&#xdc;" glyph-name="Udieresis" horiz-adv-x="725" d="M20 729Q20 742 22 753T25 770Q28 780 36 780H249Q259 780 259 770Q259 766 257 754T250 735Q210 734 196 718T181 660V330Q181 233 229 179T363 125Q461 125 512 179T564 330V660Q564 692
559 706T537 724T487 729Q487 742 489 753T492 770Q495 780 503 780H690Q700 780 700 770Q700 766 698 754T691 735Q654 734 640 718T625 659V330Q625 252 594 192T502 99T352 65Q225 65 155 129T84 330V660Q84 693 80 707T63 724T20 729ZM267 870Q238 870 219
887T200 930Q200 956 219 975T267 995Q294 995 312 976T330 930Q330 905 312 888T267 870ZM477 870Q448 870 429 887T410 930Q410 956 429 975T477 995Q504 995 522 976T540 930Q540 905 522 888T477 870Z" />
<glyph unicode="&#xdd;" glyph-name="Yacute" horiz-adv-x="650" d="M201 80Q191 80 191 90Q191 94 193 106T200 125Q244 127 260 145T276 205V379L98 664Q79 692 68 705T44 723T5 729Q5 756 9 770Q12 780 20 780H228Q238 780 238 770Q238 766 236 754T229 735Q190
733 190 709Q190 695 203 673L341 453Q344 448 347 453L466 670Q474 686 479 696T484 713Q484 722 473 725T438 729Q439 742 442 753T446 770Q449 780 457 780H635Q645 780 645 770Q645 766 643 754T636 735Q606 733 580 719T530 665L373 388V205Q373 161 377 148T396
133Q406 132 422 132T449 131Q449 104 445 90Q442 80 434 80H201ZM425 922L232 845L210 879L425 1040Q474 987 463 955Q458 934 425 922Z" />
<glyph unicode="&#xde;" glyph-name="Thorn" horiz-adv-x="590" d="M25 90Q25 94 27 106T34 125Q71 127 85 145T100 205V660Q100 692 96 705T79 723T36 729Q36 742 38 753T41 770Q44 780 52 780H260Q270 780 270 770Q270 766 268 754T261 735Q221 733 209 724T197
681V661H299Q418 661 484 615T550 482Q550 418 514 369T410 293T249 265Q238 265 224 265T197 267V205Q197 161 201 148T220 133Q228 132 241 132T265 131Q265 104 261 90Q258 80 250 80H35Q25 80 25 90ZM197 330Q216 326 236 325T273 323Q365 323 407 362T450
472Q450 539 408 574T288 610Q271 610 253 609T223 605Q207 602 202 586T197 541V330Z" />
<glyph unicode="&#xdf;" glyph-name="germandbls" horiz-adv-x="580" d="M30 80Q20 80 20 90Q20 94 21 106T27 125Q57 127 69 136T86 163T92 204Q94 223 94 236T94 275Q94 314 94 351T94 431T93 530Q93 591 123 637T203 709T314 735Q368 735 409 716T472 664T490
588Q487 557 473 540T441 513T411 495Q399 487 389 471T378 427Q378 396 393 381T432 352Q487 322 516 291T545 208Q545 162 520 130T457 82T378 65Q341 65 312 77T264 107T238 137Q236 146 247 159T275 185T305 202Q316 164 341 144T391 123Q416 123 431 141T447
191Q447 221 432 240T398 271T363 291Q322 315 299 345T275 416Q275 448 288 465T321 494T358 520Q372 531 381 546T390 586Q390 628 364 653T294 679Q243 679 218 639T190 509Q189 487 189 432T189 312Q189 286 189 257T189 205T190 170Q192 142 199 137T226 131Q226
117 225 107T222 91Q220 83 217 82T211 80H30Z" />
<glyph unicode="&#xe0;" glyph-name="agrave" horiz-adv-x="500" d="M374 70Q362 73 350 84T330 116Q305 94 270 80T184 65Q118 65 77 98T35 188Q35 246 68 280T166 333T323 366V395Q324 460 302 484T231 508Q198 508 181 494T157 458T148 409Q127 409 104 413T66
426T54 446Q62 477 92 503T168 544T269 560Q346 560 385 524T421 412Q420 395 420 356T419 275Q419 241 419 211T421 164Q423 146 430 140T448 135L480 137Q490 137 490 127Q490 121 488 110T482 91Q463 83 430 77T374 70ZM321 183L322 317Q272 310 231 297T165
261T140 199Q140 172 159 151T215 130Q245 130 276 142T321 183ZM567 610L401 709Q373 725 371 750Q368 786 427 820L596 641L567 610Z" />
<glyph unicode="&#xe1;" glyph-name="aacute" horiz-adv-x="500" d="M374 70Q362 73 350 84T330 116Q305 94 270 80T184 65Q118 65 77 98T35 188Q35 246 68 280T166 333T323 366V395Q324 460 302 484T231 508Q198 508 181 494T157 458T148 409Q127 409 104 413T66
426T54 446Q62 477 92 503T168 544T269 560Q346 560 385 524T421 412Q420 395 420 356T419 275Q419 241 419 211T421 164Q423 146 430 140T448 135L480 137Q490 137 490 127Q490 121 488 110T482 91Q463 83 430 77T374 70ZM321 183L322 317Q272 310 231 297T165
261T140 199Q140 172 159 151T215 130Q245 130 276 142T321 183ZM591 709L420 605L391 633L565 820Q624 786 621 750Q619 725 591 709Z" />
<glyph unicode="&#xe2;" glyph-name="acircumflex" horiz-adv-x="500" d="M374 70Q362 73 350 84T330 116Q305 94 270 80T184 65Q118 65 77 98T35 188Q35 246 68 280T166 333T323 366V395Q324 460 302 484T231 508Q198 508 181 494T157 458T148 409Q127 409 104
413T66 426T54 446Q62 477 92 503T168 544T269 560Q346 560 385 524T421 412Q420 395 420 356T419 275Q419 241 419 211T421 164Q423 146 430 140T448 135L480 137Q490 137 490 127Q490 121 488 110T482 91Q463 83 430 77T374 70ZM321 183L322 317Q272 310 231
297T165 261T140 199Q140 172 159 151T215 130Q245 130 276 142T321 183ZM351 642L457 770Q465 780 473 785T493 790H508Q520 790 528 785T544 770L651 643L617 615L501 713L385 615L351 642Z" />
<glyph unicode="&#xe3;" glyph-name="atilde" horiz-adv-x="500" d="M374 70Q362 73 350 84T330 116Q305 94 270 80T184 65Q118 65 77 98T35 188Q35 246 68 280T166 333T323 366V395Q324 460 302 484T231 508Q198 508 181 494T157 458T148 409Q127 409 104 413T66
426T54 446Q62 477 92 503T168 544T269 560Q346 560 385 524T421 412Q420 395 420 356T419 275Q419 241 419 211T421 164Q423 146 430 140T448 135L480 137Q490 137 490 127Q490 121 488 110T482 91Q463 83 430 77T374 70ZM321 183L322 317Q272 310 231 297T165
261T140 199Q140 172 159 151T215 130Q245 130 276 142T321 183ZM633 759Q658 757 656 726Q656 712 647 689T618 648T568 630Q542 630 522 642T484 668Q467 682 458 687T439 692Q421 692 410 678T396 638L368 640Q344 641 346 674Q347 689 356 710T386 748T436
765Q462 765 481 753T517 728Q534 714 544 709T565 703Q585 703 595 719T604 761L633 759Z" />
<glyph unicode="&#xe4;" glyph-name="adieresis" horiz-adv-x="500" d="M374 70Q362 73 350 84T330 116Q305 94 270 80T184 65Q118 65 77 98T35 188Q35 246 68 280T166 333T323 366V395Q324 460 302 484T231 508Q198 508 181 494T157 458T148 409Q127 409 104
413T66 426T54 446Q62 477 92 503T168 544T269 560Q346 560 385 524T421 412Q420 395 420 356T419 275Q419 241 419 211T421 164Q423 146 430 140T448 135L480 137Q490 137 490 127Q490 121 488 110T482 91Q463 83 430 77T374 70ZM321 183L322 317Q272 310 231
297T165 261T140 199Q140 172 159 151T215 130Q245 130 276 142T321 183ZM408 640Q379 640 360 657T341 700Q341 726 360 745T408 765Q435 765 453 746T471 700Q471 675 453 658T408 640ZM598 640Q569 640 550 657T531 700Q531 726 550 745T598 765Q625 765 643
746T661 700Q661 675 643 658T598 640Z" />
<glyph unicode="&#xe5;" glyph-name="aring" horiz-adv-x="500" d="M374 70Q362 73 350 84T330 116Q305 94 270 80T184 65Q118 65 77 98T35 188Q35 246 68 280T166 333T323 366V395Q324 460 302 484T231 508Q198 508 181 494T157 458T148 409Q127 409 104 413T66
426T54 446Q62 477 92 503T168 544T269 560Q346 560 385 524T421 412Q420 395 420 356T419 275Q419 241 419 211T421 164Q423 146 430 140T448 135L480 137Q490 137 490 127Q490 121 488 110T482 91Q463 83 430 77T374 70ZM321 183L322 317Q272 310 231 297T165
261T140 199Q140 172 159 151T215 130Q245 130 276 142T321 183ZM500 610Q456 610 426 638T396 710Q396 753 426 781T500 810Q546 810 576 782T606 710Q606 667 576 639T500 610ZM500 664Q522 664 536 677T550 710Q550 730 536 743T500 756Q480 756 466 743T452
710Q452 691 466 678T500 664Z" />
<glyph unicode="&#xe6;" glyph-name="ae" horiz-adv-x="770" d="M35 188Q35 246 68 280T166 333T323 366V395Q323 460 301 484T231 508Q198 508 181 494T157 458T148 409Q127 409 104 413T66 426T54 446Q62 477 92 503T168 544T269 560Q361 560 398 510Q454 560
544 560Q602 560 643 535T707 468T730 371Q730 343 719 331T680 316L423 305Q426 257 440 218T483 156T557 133Q593 133 636 148T704 189Q725 166 725 143Q725 128 705 114Q666 87 625 76T548 65Q490 65 442 85T363 148Q337 114 294 90T184 65Q118 65 77 98T35
188ZM140 199Q140 172 159 151T215 130Q240 130 265 138T308 165T331 215Q320 254 320 302V316Q271 309 230 296T165 260T140 199ZM423 362L631 375Q633 436 609 469T532 502Q483 502 456 465T423 362Z" />
<glyph unicode="&#xe7;" glyph-name="ccedilla" horiz-adv-x="485" d="M267 65Q204 65 151 90T67 167T35 299Q35 374 65 433T153 526T291 560Q345 560 379 545T430 513T447 487Q447 477 437 465T410 442T377 428Q363 472 332 487T267 502Q224 502 195 477T151
410T136 324Q136 277 152 233T202 161T284 133Q326 133 367 150T433 194Q443 184 451 171T460 148Q460 133 440 119Q400 91 354 78T267 65ZM464 -170Q449 -170 441 -163T434 -144L441 -104Q455 -108 468 -110T493 -112Q519 -112 534 -103T550 -76Q550 -42 498 -42Q490
-42 480 -43T459 -46L453 -38L478 90H542L528 19Q574 16 599 -3T624 -56Q624 -80 605 -106T550 -151T464 -170Z" />
<glyph unicode="&#xe8;" glyph-name="egrave" horiz-adv-x="500" d="M137 305Q141 228 181 182T296 135Q334 135 371 150T433 191Q454 168 454 145Q453 130 433 116Q396 89 350 77T263 65Q202 65 150 91T67 170T35 300Q35 377 63 435T144 527T269 560Q328 560
370 536T436 470T460 373Q460 345 449 332T409 316L137 305ZM261 502Q212 502 180 465T140 362L363 375Q366 436 339 469T261 502ZM582 610L416 709Q388 725 386 750Q383 786 442 820L611 641L582 610Z" />
<glyph unicode="&#xe9;" glyph-name="eacute" horiz-adv-x="500" d="M137 305Q141 228 181 182T296 135Q334 135 371 150T433 191Q454 168 454 145Q453 130 433 116Q396 89 350 77T263 65Q202 65 150 91T67 170T35 300Q35 377 63 435T144 527T269 560Q328 560
370 536T436 470T460 373Q460 345 449 332T409 316L137 305ZM261 502Q212 502 180 465T140 362L363 375Q366 436 339 469T261 502ZM606 709L435 605L406 633L580 820Q639 786 636 750Q634 725 606 709Z" />
<glyph unicode="&#xea;" glyph-name="ecircumflex" horiz-adv-x="500" d="M137 305Q141 228 181 182T296 135Q334 135 371 150T433 191Q454 168 454 145Q453 130 433 116Q396 89 350 77T263 65Q202 65 150 91T67 170T35 300Q35 377 63 435T144 527T269 560Q328
560 370 536T436 470T460 373Q460 345 449 332T409 316L137 305ZM261 502Q212 502 180 465T140 362L363 375Q366 436 339 469T261 502ZM366 642L472 770Q480 780 488 785T508 790H523Q535 790 543 785T559 770L666 643L632 615L516 713L400 615L366 642Z" />
<glyph unicode="&#xeb;" glyph-name="edieresis" horiz-adv-x="500" d="M137 305Q141 228 181 182T296 135Q334 135 371 150T433 191Q454 168 454 145Q453 130 433 116Q396 89 350 77T263 65Q202 65 150 91T67 170T35 300Q35 377 63 435T144 527T269 560Q328 560
370 536T436 470T460 373Q460 345 449 332T409 316L137 305ZM261 502Q212 502 180 465T140 362L363 375Q366 436 339 469T261 502ZM423 640Q394 640 375 657T356 700Q356 726 375 745T423 765Q450 765 468 746T486 700Q486 675 468 658T423 640ZM613 640Q584 640
565 657T546 700Q546 726 565 745T613 765Q640 765 658 746T676 700Q676 675 658 658T613 640Z" />
<glyph unicode="&#xec;" glyph-name="igrave" horiz-adv-x="285" d="M40 80Q30 80 30 94Q30 111 36 125Q72 127 86 141T103 180Q105 197 105 232T106 306Q106 345 106 382T104 442Q102 478 74 481L40 484Q30 484 30 497Q30 510 40 528Q55 532 82 536T136 543T175
546Q208 546 205 506Q203 477 202 438T201 355T200 270Q200 240 200 212T202 159Q203 146 208 141T219 134Q228 133 242 132T270 131Q270 104 266 90Q263 80 252 80H40ZM211 610L45 709Q17 725 15 750Q12 786 71 820L240 641L211 610Z" />
<glyph unicode="&#xed;" glyph-name="iacute" horiz-adv-x="285" d="M40 80Q30 80 30 94Q30 111 36 125Q72 127 86 141T103 180Q105 197 105 232T106 306Q106 345 106 382T104 442Q102 478 74 481L40 484Q30 484 30 497Q30 510 40 528Q55 532 82 536T136 543T175
546Q208 546 205 506Q203 477 202 438T201 355T200 270Q200 240 200 212T202 159Q203 146 208 141T219 134Q228 133 242 132T270 131Q270 104 266 90Q263 80 252 80H40ZM235 709L64 605L35 633L209 820Q268 786 265 750Q263 725 235 709Z" />
<glyph unicode="&#xee;" glyph-name="icircumflex" horiz-adv-x="285" d="M40 80Q30 80 30 94Q30 111 36 125Q72 127 86 141T103 180Q105 197 105 232T106 306Q106 345 106 382T104 442Q102 478 74 481L40 484Q30 484 30 497Q30 510 40 528Q55 532 82 536T136
543T175 546Q208 546 205 506Q203 477 202 438T201 355T200 270Q200 240 200 212T202 159Q203 146 208 141T219 134Q228 133 242 132T270 131Q270 104 266 90Q263 80 252 80H40ZM-5 642L101 770Q109 780 117 785T137 790H152Q164 790 172 785T188 770L295 643L261
615L145 713L29 615L-5 642Z" />
<glyph unicode="&#xef;" glyph-name="idieresis" horiz-adv-x="285" d="M40 80Q30 80 30 94Q30 111 36 125Q72 127 86 141T103 180Q105 197 105 232T106 306Q106 345 106 382T104 442Q102 478 74 481L40 484Q30 484 30 497Q30 510 40 528Q55 532 82 536T136 543T175
546Q208 546 205 506Q203 477 202 438T201 355T200 270Q200 240 200 212T202 159Q203 146 208 141T219 134Q228 133 242 132T270 131Q270 104 266 90Q263 80 252 80H40ZM52 640Q23 640 4 657T-15 700Q-15 726 4 745T52 765Q79 765 97 746T115 700Q115 675 97 658T52
640ZM242 640Q213 640 194 657T175 700Q175 726 194 745T242 765Q269 765 287 746T305 700Q305 675 287 658T242 640Z" />
<glyph unicode="&#xf0;" glyph-name="eth" horiz-adv-x="525" d="M83 604L255 678Q223 696 181 703T87 711Q78 711 69 711T50 710Q54 744 68 768Q74 779 94 782T141 785Q197 785 247 766T338 714L445 760L468 698L387 663Q434 605 459 527T485 359Q485 269 458
203T380 101T261 65Q196 65 146 96T68 180T40 302Q40 369 66 419T140 498T248 527Q280 527 313 517T373 489Q354 581 313 631L109 543L83 604ZM387 374Q375 416 342 440T264 464Q231 464 204 440T160 376T143 286Q143 239 159 200T202 139T261 116Q295 117 325
147T373 230T388 347L387 374Z" />
<glyph unicode="&#xf1;" glyph-name="ntilde" horiz-adv-x="580" d="M40 80Q30 80 30 90Q30 97 31 108T37 125Q69 127 82 141T98 180Q100 197 100 232T101 306Q101 345 101 384T99 446Q97 482 69 485L35 488Q25 488 25 501Q25 515 35 533Q52 537 77 540T126 547T162
550Q182 550 189 540T197 505Q197 496 197 486Q230 520 273 540T359 560Q421 560 460 525T500 413V292Q500 244 500 211T503 160Q506 138 521 134Q539 130 570 130Q570 104 566 90Q563 80 555 80H345Q335 80 335 90Q335 94 336 104T341 125Q373 127 386 141T402
180Q407 222 407 292Q407 312 407 331T405 367Q402 426 383 454T317 482Q285 482 253 469T196 431Q196 393 196 351T195 270Q195 240 195 212T197 159Q198 146 203 141T214 134Q232 131 260 131Q260 121 259 108T256 90Q253 80 242 80H40ZM447 759Q472 757 470
726Q470 712 461 689T432 648T382 630Q356 630 336 642T298 668Q281 682 272 687T253 692Q235 692 224 678T210 638L182 640Q158 641 160 674Q161 689 170 710T200 748T250 765Q276 765 295 753T331 728Q348 714 358 709T379 703Q399 703 409 719T418 761L447 759Z"
/>
<glyph unicode="&#xf2;" glyph-name="ograve" horiz-adv-x="550" d="M263 65Q195 65 144 94T64 176T35 301Q35 378 66 436T155 527T286 560Q355 560 406 531T486 450T515 326Q516 250 484 191T395 99T263 65ZM282 126Q345 126 380 173T416 302Q416 396 374 447T267
499Q206 499 170 452T134 320Q134 229 175 178T282 126ZM597 610L431 709Q403 725 401 750Q398 786 457 820L626 641L597 610Z" />
<glyph unicode="&#xf3;" glyph-name="oacute" horiz-adv-x="550" d="M263 65Q195 65 144 94T64 176T35 301Q35 378 66 436T155 527T286 560Q355 560 406 531T486 450T515 326Q516 250 484 191T395 99T263 65ZM282 126Q345 126 380 173T416 302Q416 396 374 447T267
499Q206 499 170 452T134 320Q134 229 175 178T282 126ZM621 709L450 605L421 633L595 820Q654 786 651 750Q649 725 621 709Z" />
<glyph unicode="&#xf4;" glyph-name="ocircumflex" horiz-adv-x="550" d="M263 65Q195 65 144 94T64 176T35 301Q35 378 66 436T155 527T286 560Q355 560 406 531T486 450T515 326Q516 250 484 191T395 99T263 65ZM282 126Q345 126 380 173T416 302Q416 396 374
447T267 499Q206 499 170 452T134 320Q134 229 175 178T282 126ZM381 642L487 770Q495 780 503 785T523 790H538Q550 790 558 785T574 770L681 643L647 615L531 713L415 615L381 642Z" />
<glyph unicode="&#xf5;" glyph-name="otilde" horiz-adv-x="550" d="M263 65Q195 65 144 94T64 176T35 301Q35 378 66 436T155 527T286 560Q355 560 406 531T486 450T515 326Q516 250 484 191T395 99T263 65ZM282 126Q345 126 380 173T416 302Q416 396 374 447T267
499Q206 499 170 452T134 320Q134 229 175 178T282 126ZM663 759Q688 757 686 726Q686 712 677 689T648 648T598 630Q572 630 552 642T514 668Q497 682 488 687T469 692Q451 692 440 678T426 638L398 640Q374 641 376 674Q377 689 386 710T416 748T466 765Q492
765 511 753T547 728Q564 714 574 709T595 703Q615 703 625 719T634 761L663 759Z" />
<glyph unicode="&#xf6;" glyph-name="odieresis" horiz-adv-x="550" d="M263 65Q195 65 144 94T64 176T35 301Q35 378 66 436T155 527T286 560Q355 560 406 531T486 450T515 326Q516 250 484 191T395 99T263 65ZM282 126Q345 126 380 173T416 302Q416 396 374
447T267 499Q206 499 170 452T134 320Q134 229 175 178T282 126ZM438 640Q409 640 390 657T371 700Q371 726 390 745T438 765Q465 765 483 746T501 700Q501 675 483 658T438 640ZM628 640Q599 640 580 657T561 700Q561 726 580 745T628 765Q655 765 673 746T691
700Q691 675 673 658T628 640Z" />
<glyph unicode="&#xf7;" glyph-name="divide" horiz-adv-x="650" d="M570 435V355H80V435H570ZM248 217Q248 249 270 272T325 295Q357 295 379 272T402 217Q402 185 380 163T325 140Q293 140 271 162T248 217ZM248 588Q248 620 270 642T325 665Q357 665 379 643T402
588Q402 556 380 534T325 511Q293 511 271 533T248 588Z" />
<glyph unicode="&#xf8;" glyph-name="oslash" horiz-adv-x="550" d="M263 65Q195 65 144 94T64 176T35 301Q35 378 66 436T155 527T286 560Q355 560 406 531T486 450T515 326Q516 250 484 191T395 99T263 65ZM282 126Q345 126 380 173T416 302Q416 396 374 447T267
499Q206 499 170 452T134 320Q134 229 175 178T282 126ZM336 261L664 911L726 879L399 231L336 261Z" />
<glyph unicode="&#xf9;" glyph-name="ugrave" horiz-adv-x="565" d="M234 65Q195 65 162 82T108 133T88 216L89 444Q89 464 83 471T61 480L25 483Q15 484 15 496Q15 510 25 528Q41 533 66 537T117 543T154 545Q173 545 182 536T189 504Q187 464 186 418T185 331V241Q185
186 211 165T272 144Q303 144 336 157T393 192Q395 234 396 283T397 379T398 456Q398 470 393 475T374 481L343 483Q333 483 333 496Q333 510 343 528Q360 532 384 536T431 542T467 545Q484 545 491 537T497 504Q496 484 495 443T492 350T491 249T490 165Q490 147
495 142T513 136H545Q555 136 555 123Q555 109 545 91Q523 83 493 77T443 70Q429 73 414 89T393 136Q359 100 317 83T234 65ZM612 610L446 709Q418 725 416 750Q413 786 472 820L641 641L612 610Z" />
<glyph unicode="&#xfa;" glyph-name="uacute" horiz-adv-x="565" d="M234 65Q195 65 162 82T108 133T88 216L89 444Q89 464 83 471T61 480L25 483Q15 484 15 496Q15 510 25 528Q41 533 66 537T117 543T154 545Q173 545 182 536T189 504Q187 464 186 418T185 331V241Q185
186 211 165T272 144Q303 144 336 157T393 192Q395 234 396 283T397 379T398 456Q398 470 393 475T374 481L343 483Q333 483 333 496Q333 510 343 528Q360 532 384 536T431 542T467 545Q484 545 491 537T497 504Q496 484 495 443T492 350T491 249T490 165Q490 147
495 142T513 136H545Q555 136 555 123Q555 109 545 91Q523 83 493 77T443 70Q429 73 414 89T393 136Q359 100 317 83T234 65ZM636 709L465 605L436 633L610 820Q669 786 666 750Q664 725 636 709Z" />
<glyph unicode="&#xfb;" glyph-name="ucircumflex" horiz-adv-x="565" d="M234 65Q195 65 162 82T108 133T88 216L89 444Q89 464 83 471T61 480L25 483Q15 484 15 496Q15 510 25 528Q41 533 66 537T117 543T154 545Q173 545 182 536T189 504Q187 464 186 418T185
331V241Q185 186 211 165T272 144Q303 144 336 157T393 192Q395 234 396 283T397 379T398 456Q398 470 393 475T374 481L343 483Q333 483 333 496Q333 510 343 528Q360 532 384 536T431 542T467 545Q484 545 491 537T497 504Q496 484 495 443T492 350T491 249T490
165Q490 147 495 142T513 136H545Q555 136 555 123Q555 109 545 91Q523 83 493 77T443 70Q429 73 414 89T393 136Q359 100 317 83T234 65ZM396 642L502 770Q510 780 518 785T538 790H553Q565 790 573 785T589 770L696 643L662 615L546 713L430 615L396 642Z" />
<glyph unicode="&#xfc;" glyph-name="udieresis" horiz-adv-x="565" d="M234 65Q195 65 162 82T108 133T88 216L89 444Q89 464 83 471T61 480L25 483Q15 484 15 496Q15 510 25 528Q41 533 66 537T117 543T154 545Q173 545 182 536T189 504Q187 464 186 418T185
331V241Q185 186 211 165T272 144Q303 144 336 157T393 192Q395 234 396 283T397 379T398 456Q398 470 393 475T374 481L343 483Q333 483 333 496Q333 510 343 528Q360 532 384 536T431 542T467 545Q484 545 491 537T497 504Q496 484 495 443T492 350T491 249T490
165Q490 147 495 142T513 136H545Q555 136 555 123Q555 109 545 91Q523 83 493 77T443 70Q429 73 414 89T393 136Q359 100 317 83T234 65ZM453 640Q424 640 405 657T386 700Q386 726 405 745T453 765Q480 765 498 746T516 700Q516 675 498 658T453 640ZM643 640Q614
640 595 657T576 700Q576 726 595 745T643 765Q670 765 688 746T706 700Q706 675 688 658T643 640Z" />
<glyph unicode="&#xfd;" glyph-name="yacute" horiz-adv-x="540" d="M123 -118Q84 -118 36 -97Q35 -86 39 -69T52 -43Q63 -44 73 -45T93 -47Q139 -47 180 -13T250 80L102 408Q87 443 76 461T49 486T5 495Q5 506 7 518T10 535Q13 545 22 545H230Q240 545 240 535Q240
531 239 521T234 500Q210 499 200 493T190 473Q190 463 194 450T206 419L297 201L376 417Q382 434 385 447T389 470Q389 487 378 493T344 500Q346 523 349 535Q352 545 363 545H525Q535 545 535 535Q535 528 534 517T528 500Q504 498 490 491T465 468T442 419L308
80Q277 -14 233 -66T123 -118ZM641 709L470 605L441 633L615 820Q674 786 671 750Q669 725 641 709Z" />
<glyph unicode="&#xfe;" glyph-name="thorn" horiz-adv-x="570" d="M25 -120Q15 -120 15 -110Q15 -106 16 -94T21 -75Q53 -73 67 -59T82 -20Q85 71 87 191T90 460Q90 518 90 580T88 710Q88 747 58 748L25 750Q15 750 15 763Q15 777 25 795Q40 799 66 802T118 807T156
810Q174 810 181 802T189 774Q189 762 188 728T185 644T182 536Q182 512 182 487Q210 518 250 539T334 560Q402 560 446 527T512 440T535 327Q535 279 520 233T473 148T394 88T285 65Q254 65 228 72T180 92Q180 59 180 29T181 -30Q181 -49 186 -57T206 -67Q212
-68 231 -68T260 -69Q260 -96 256 -110Q253 -120 245 -120H25ZM180 214Q191 175 223 151T299 126Q360 126 397 175T435 307Q435 386 404 437T304 488Q267 488 235 468T181 414Q181 362 181 311T180 214Z" />
<glyph unicode="&#xff;" glyph-name="ydieresis" horiz-adv-x="540" d="M123 -118Q84 -118 36 -97Q35 -86 39 -69T52 -43Q63 -44 73 -45T93 -47Q139 -47 180 -13T250 80L102 408Q87 443 76 461T49 486T5 495Q5 506 7 518T10 535Q13 545 22 545H230Q240 545 240
535Q240 531 239 521T234 500Q210 499 200 493T190 473Q190 463 194 450T206 419L297 201L376 417Q382 434 385 447T389 470Q389 487 378 493T344 500Q346 523 349 535Q352 545 363 545H525Q535 545 535 535Q535 528 534 517T528 500Q504 498 490 491T465 468T442
419L308 80Q277 -14 233 -66T123 -118ZM458 640Q429 640 410 657T391 700Q391 726 410 745T458 765Q485 765 503 746T521 700Q521 675 503 658T458 640ZM648 640Q619 640 600 657T581 700Q581 726 600 745T648 765Q675 765 693 746T711 700Q711 675 693 658T648
640Z" />
<glyph unicode="&#x2013;" glyph-name="endash" horiz-adv-x="560" d="M520 385V320H40V385H520Z" />
<glyph unicode="&#x2014;" glyph-name="emdash" d="M860 385V320H40V385H860Z" />
<glyph unicode="&#x2018;" glyph-name="quoteleft" horiz-adv-x="270" d="M129 620Q93 620 77 645T60 705Q60 746 83 791T143 861Q163 875 178 875Q190 875 199 865L215 847Q185 833 162 803T130 739Q130 739 130 739Q159 739 176 722T193 679Q193 652 174 636T129 620Z" />
<glyph unicode="&#x2019;" glyph-name="quoteright" horiz-adv-x="270" d="M141 870Q177 870 193 845T210 785Q210 744 187 700T127 629Q107 615 92 615Q80 615 71 625L55 643Q85 657 108 687T140 751Q140 751 140 751Q112 751 95 768T77 811Q77 838 96 854T141 870Z" />
<glyph unicode="&#x201a;" glyph-name="quotesinglbase" horiz-adv-x="270" d="M141 180Q177 180 193 155T210 95Q210 54 187 10T127 -61Q107 -75 92 -75Q80 -75 71 -65L55 -47Q85 -33 108 -3T140 61Q140 61 140 61Q112 61 95 78T77 121Q77 148 96 164T141 180Z" />
<glyph unicode="&#x201c;" glyph-name="quotedblleft" horiz-adv-x="430" d="M380 620Q344 620 328 645T311 705Q311 746 334 791T394 861Q414 875 429 875Q441 875 450 865L466 847Q436 833 413 803T381 739Q381 739 381 739Q410 739 427 722T444 679Q444 652
425 636T380 620ZM294 620Q258 620 242 645T225 705Q225 746 248 791T308 861Q328 875 343 875Q355 875 364 865L380 847Q350 833 327 803T295 739Q295 739 295 739Q324 739 341 722T358 679Q358 652 339 636T294 620Z" />
<glyph unicode="&#x201d;" glyph-name="quotedblright" horiz-adv-x="430" d="M306 870Q342 870 358 845T375 785Q375 744 352 700T292 629Q272 615 257 615Q245 615 236 625L220 643Q250 657 273 687T305 751Q305 751 305 751Q277 751 260 768T242 811Q242 838
261 854T306 870ZM136 870Q172 870 188 845T205 785Q205 744 182 700T122 629Q102 615 87 615Q75 615 66 625L50 643Q80 657 103 687T135 751Q135 751 135 751Q107 751 90 768T72 811Q72 838 91 854T136 870Z" />
<glyph unicode="&#x201e;" glyph-name="quotedblbase" horiz-adv-x="430" d="M306 180Q342 180 358 155T375 95Q375 54 352 10T292 -61Q272 -75 257 -75Q245 -75 236 -65L220 -47Q250 -33 273 -3T305 61Q305 61 305 61Q277 61 260 78T242 121Q242 148 261 164T306
180ZM136 180Q172 180 188 155T205 95Q205 54 182 10T122 -61Q102 -75 87 -75Q75 -75 66 -65L50 -47Q80 -33 103 -3T135 61Q135 61 135 61Q107 61 90 78T72 121Q72 148 91 164T136 180Z" />
<glyph unicode="&#x2022;" glyph-name="bullet" horiz-adv-x="510" d="M256 320Q211 320 181 350T150 423Q150 466 180 498T256 530Q285 530 308 515T346 476T360 423Q360 380 330 350T256 320Z" />
<glyph unicode="&#x2039;" glyph-name="guilsinglleft" horiz-adv-x="310" d="M226 105Q209 129 178 163T111 229T40 279V326Q74 345 110 377T178 442T226 500L247 485Q260 475 260 461Q260 449 244 423T201 364T147 303Q176 275 201 243T243 183T260 144Q260
130 247 120L226 105Z" />
<glyph unicode="&#x203a;" glyph-name="guilsinglright" horiz-adv-x="310" d="M84 105L63 120Q50 130 50 144Q50 156 66 183T109 242T163 303Q135 332 109 364T67 422T50 461Q50 475 63 485L84 500Q101 476 132 443T200 377T270 326V279Q237 262 200 230T132
163T84 105Z" />
</font>
</defs>
</svg>
